<svg width="800" height="413" viewBox="0 0 800 413" fill="none" xmlns="http://www.w3.org/2000/svg">
<g clip-path="url(#clip0_645_3771)">
<path fill-rule="evenodd" clip-rule="evenodd" d="M674 128.067C674 127.146 673.251 126.398 672.328 126.398C671.404 126.398 670.656 127.146 670.656 128.067V138.041H667.894C664.816 138.041 662.32 140.53 662.32 143.601V190.69C662.32 193.761 664.816 196.25 667.894 196.25H670.656V209.551C670.656 210.472 671.404 211.219 672.328 211.219C673.251 211.219 674 210.472 674 209.551V196.25H678.419C681.497 196.25 683.993 193.761 683.993 190.69V143.601C683.993 140.53 681.497 138.041 678.419 138.041H674V128.067Z" fill="url(#paint0_linear_645_3771)"/>
<path fill-rule="evenodd" clip-rule="evenodd" d="M715.597 1.66808C715.597 0.746822 714.849 -4.02692e-08 713.926 0C713.002 4.02692e-08 712.253 0.746822 712.253 1.66808V61.536H709.492C706.413 61.536 703.918 64.0254 703.918 67.0962V157.427C703.918 160.498 706.413 162.987 709.492 162.987H712.253V172.961C712.253 173.883 713.002 174.629 713.926 174.629C714.849 174.629 715.597 173.883 715.597 172.961V162.987H720.017C723.094 162.987 725.59 160.498 725.59 157.427V67.0962C725.59 64.0254 723.094 61.536 720.017 61.536H715.597V1.66808Z" fill="url(#paint1_linear_645_3771)"/>
<path fill-rule="evenodd" clip-rule="evenodd" d="M625.656 104.782C625.656 103.861 624.908 103.114 623.984 103.114C623.06 103.114 622.312 103.861 622.312 104.782V108.103H619.549C616.472 108.103 613.977 110.593 613.977 113.664V182.374C613.977 185.444 616.472 187.933 619.549 187.933H622.312V219.528C622.312 220.45 623.06 221.197 623.984 221.197C624.908 221.197 625.656 220.45 625.656 219.528V187.933H630.075C633.153 187.933 635.648 185.444 635.648 182.374V113.664C635.648 110.593 633.153 108.103 630.075 108.103H625.656V104.782Z" fill="url(#paint2_linear_645_3771)"/>
<path d="M742.208 209.948C742.208 211.763 740.87 213.329 738.07 213.613V215.606H736.608V213.631C734.86 213.524 733.166 212.955 732.238 212.154L733.041 210.357C733.914 211.069 735.252 211.585 736.608 211.709V208.151C734.628 207.671 732.506 207.03 732.506 204.557C732.506 202.742 733.825 201.158 736.608 200.892V198.881H738.07V200.856C739.389 200.927 740.727 201.319 741.691 201.941L740.959 203.738C740.014 203.187 739.016 202.885 738.07 202.777V206.371C740.05 206.852 742.208 207.475 742.208 209.948ZM734.806 204.45C734.806 205.304 735.573 205.695 736.608 205.998V202.83C735.341 203.027 734.806 203.667 734.806 204.45ZM738.07 211.674C739.372 211.478 739.925 210.874 739.925 210.108C739.925 209.236 739.14 208.827 738.07 208.524V211.674ZM746.772 211.514H752.657V213.471H743.454V211.923L748.412 207.225C749.625 206.069 749.839 205.34 749.839 204.645C749.839 203.507 749.055 202.849 747.52 202.849C746.308 202.849 745.292 203.257 744.595 204.148L742.973 202.902C743.936 201.603 745.666 200.838 747.717 200.838C750.428 200.838 752.175 202.208 752.175 204.415C752.175 205.624 751.837 206.728 750.106 208.347L746.772 211.514ZM764.863 208.685V210.642H762.651V213.471H760.404V210.642H753.555V209.04L759.709 201.016H762.188L756.391 208.685H760.476V206.175H762.651V208.685H764.863ZM764.744 201.016H769.702V213.471H767.383V202.955H764.744V201.016ZM773.569 213.596C772.767 213.596 772.107 212.973 772.107 212.119C772.107 211.229 772.767 210.642 773.569 210.642C774.372 210.642 775.032 211.229 775.032 212.119C775.032 212.973 774.372 213.596 773.569 213.596ZM781.532 213.649C778.571 213.649 776.324 211.336 776.324 207.244C776.324 203.151 778.571 200.838 781.532 200.838C784.51 200.838 786.757 203.151 786.757 207.244C786.757 211.336 784.51 213.649 781.532 213.649ZM781.532 211.639C783.244 211.639 784.421 210.251 784.421 207.244C784.421 204.237 783.244 202.849 781.532 202.849C779.837 202.849 778.66 204.237 778.66 207.244C778.66 210.251 779.837 211.639 781.532 211.639ZM793.532 213.649C790.571 213.649 788.324 211.336 788.324 207.244C788.324 203.151 790.571 200.838 793.532 200.838C796.51 200.838 798.757 203.151 798.757 207.244C798.757 211.336 796.51 213.649 793.532 213.649ZM793.532 211.639C795.244 211.639 796.421 210.251 796.421 207.244C796.421 204.237 795.244 202.849 793.532 202.849C791.837 202.849 790.66 204.237 790.66 207.244C790.66 210.251 791.837 211.639 793.532 211.639Z" fill="white"/>
<path d="M797.311 220.509H734.889C733.658 220.509 732.66 221.505 732.66 222.733V241.638C732.66 242.866 733.658 243.862 734.889 243.862H797.311C798.542 243.862 799.54 242.866 799.54 241.638V222.733C799.54 221.505 798.542 220.509 797.311 220.509Z" fill="url(#paint3_linear_645_3771)" fill-opacity="0.1"/>
<path d="M746.384 231.577V232.912H744.016V235.247H742.584V232.912H740.217V231.577H742.584V229.242H744.016V231.577H746.384ZM749.998 235.448H754.412V236.915H747.509V235.754L751.228 232.231C752.137 231.364 752.298 230.817 752.298 230.297C752.298 229.442 751.709 228.949 750.559 228.949C749.65 228.949 748.888 229.255 748.365 229.923L747.149 228.989C747.871 228.015 749.168 227.44 750.707 227.44C752.74 227.44 754.051 228.468 754.051 230.123C754.051 231.03 753.797 231.858 752.499 233.072L749.998 235.448ZM763.566 233.325V234.793H761.908V236.915H760.222V234.793H755.086V233.593L759.701 227.574H761.559L757.212 233.325H760.275V231.444H761.908V233.325H763.566ZM765.602 237.008C765 237.008 764.506 236.541 764.506 235.901C764.506 235.233 765 234.793 765.602 234.793C766.205 234.793 766.699 235.233 766.699 235.901C766.699 236.541 766.205 237.008 765.602 237.008ZM767.147 227.574H770.866V236.915H769.127V229.029H767.147V227.574ZM776.629 237.048C774.409 237.048 772.723 235.314 772.723 232.245C772.723 229.175 774.409 227.44 776.629 227.44C778.863 227.44 780.548 229.175 780.548 232.245C780.548 235.314 778.863 237.048 776.629 237.048ZM776.629 235.541C777.913 235.541 778.796 234.5 778.796 232.245C778.796 229.989 777.913 228.949 776.629 228.949C775.358 228.949 774.475 229.989 774.475 232.245C774.475 234.5 775.358 235.541 776.629 235.541ZM783.81 232.605C782.473 232.605 781.576 231.577 781.576 230.043C781.576 228.508 782.473 227.481 783.81 227.481C785.148 227.481 786.057 228.495 786.057 230.043C786.057 231.59 785.148 232.605 783.81 232.605ZM783.034 236.915L789.428 227.574H790.739L784.345 236.915H783.034ZM783.81 231.671C784.532 231.671 784.96 231.083 784.96 230.043C784.96 229.002 784.532 228.415 783.81 228.415C783.115 228.415 782.66 229.015 782.66 230.043C782.66 231.07 783.115 231.671 783.81 231.671ZM789.95 237.008C788.612 237.008 787.716 235.981 787.716 234.447C787.716 232.912 788.612 231.884 789.95 231.884C791.288 231.884 792.197 232.912 792.197 234.447C792.197 235.981 791.288 237.008 789.95 237.008ZM789.95 236.074C790.659 236.074 791.1 235.474 791.1 234.447C791.1 233.419 790.659 232.818 789.95 232.818C789.24 232.818 788.799 233.405 788.799 234.447C788.799 235.487 789.24 236.074 789.95 236.074Z" fill="#45B68D"/>
<path d="M466.969 24.0674C466.969 25.8823 465.631 27.448 462.831 27.7321V29.7248H461.369V27.7504C459.622 27.6432 457.928 27.0742 457 26.2735L457.803 24.476C458.676 25.1878 460.014 25.7037 461.369 25.8283V22.2698C459.39 21.7897 457.267 21.1493 457.267 18.6757C457.267 16.8608 458.587 15.2776 461.369 15.011V13H462.831V14.9753C464.151 15.0458 465.489 15.4379 466.452 16.06L465.721 17.8575C464.776 17.306 463.777 17.0037 462.831 16.8965V20.4906C464.811 20.9707 466.969 21.5937 466.969 24.0674ZM459.568 18.5694C459.568 19.4233 460.334 19.8145 461.369 20.1168V16.9496C460.103 17.1457 459.568 17.7861 459.568 18.5694ZM462.831 25.7934C464.134 25.5974 464.686 24.9927 464.686 24.2268C464.686 23.3555 463.902 22.946 462.831 22.6436V25.7934ZM471.534 25.6331H477.419V27.59H468.216V26.0417L473.174 21.3445C474.387 20.1883 474.601 19.459 474.601 18.7646C474.601 17.6258 473.817 16.9679 472.282 16.9679C471.07 16.9679 470.053 17.3766 469.357 18.2671L467.735 17.0211C468.698 15.722 470.428 14.957 472.479 14.957C475.19 14.957 476.937 16.3275 476.937 18.5337C476.937 19.7431 476.598 20.847 474.868 22.4659L471.534 25.6331ZM489.624 22.804V24.7609H487.413V27.59H485.166V24.7609H478.317V23.1594L484.471 15.1347H486.949L481.153 22.804H485.238V20.2946H487.413V22.804H489.624ZM489.506 15.1347H494.464V27.59H492.145V17.0742H489.506V15.1347ZM498.331 27.7147C497.528 27.7147 496.869 27.0917 496.869 26.2378C496.869 25.3482 497.528 24.7609 498.331 24.7609C499.134 24.7609 499.794 25.3482 499.794 26.2378C499.794 27.0917 499.134 27.7147 498.331 27.7147ZM506.293 27.7678C503.333 27.7678 501.086 25.4553 501.086 21.3628C501.086 17.2703 503.333 14.957 506.293 14.957C509.272 14.957 511.519 17.2703 511.519 21.3628C511.519 25.4553 509.272 27.7678 506.293 27.7678ZM506.293 25.7577C508.005 25.7577 509.183 24.3697 509.183 21.3628C509.183 18.3559 508.005 16.9679 506.293 16.9679C504.599 16.9679 503.422 18.3559 503.422 21.3628C503.422 24.3697 504.599 25.7577 506.293 25.7577ZM518.293 27.7678C515.333 27.7678 513.086 25.4553 513.086 21.3628C513.086 17.2703 515.333 14.957 518.293 14.957C521.272 14.957 523.519 17.2703 523.519 21.3628C523.519 25.4553 521.272 27.7678 518.293 27.7678ZM518.293 25.7577C520.005 25.7577 521.183 24.3697 521.183 21.3628C521.183 18.3559 520.005 16.9679 518.293 16.9679C516.599 16.9679 515.422 18.3559 515.422 21.3628C515.422 24.3697 516.599 25.7577 518.293 25.7577Z" fill="white"/>
<path d="M522.073 34.6279H459.651C458.42 34.6279 457.422 35.6237 457.422 36.852V55.7569C457.422 56.9852 458.42 57.981 459.651 57.981H522.073C523.304 57.981 524.302 56.9852 524.302 55.7569V36.852C524.302 35.6237 523.304 34.6279 522.073 34.6279Z" fill="url(#paint4_linear_645_3771)" fill-opacity="0.1"/>
<path d="M471.145 45.6966V47.0314H468.778V49.3665H467.346V47.0314H464.979V45.6966H467.346V43.3615H468.778V45.6966H471.145ZM474.759 49.5669H479.173V51.0342H472.271V49.8736L475.99 46.35C476.899 45.4831 477.06 44.9359 477.06 44.4157C477.06 43.561 476.471 43.0678 475.321 43.0678C474.412 43.0678 473.649 43.3745 473.127 44.0419L471.91 43.1079C472.633 42.1338 473.93 41.5596 475.469 41.5596C477.502 41.5596 478.813 42.5869 478.813 44.2423C478.813 45.1494 478.558 45.9771 477.261 47.1908L474.759 49.5669ZM488.328 47.4444V48.9125H486.669V51.0342H484.984V48.9125H479.848V47.7119L484.462 41.6929H486.321L481.974 47.4444H485.037V45.5632H486.669V47.4444H488.328ZM490.364 51.1274C489.762 51.1274 489.268 50.6604 489.268 50.02C489.268 49.3526 489.762 48.9125 490.364 48.9125C490.966 48.9125 491.461 49.3526 491.461 50.02C491.461 50.6604 490.966 51.1274 490.364 51.1274ZM491.909 41.6929H495.627V51.0342H493.889V43.148H491.909V41.6929ZM501.391 51.1675C499.171 51.1675 497.485 49.4327 497.485 46.364C497.485 43.2944 499.171 41.5596 501.391 41.5596C503.625 41.5596 505.31 43.2944 505.31 46.364C505.31 49.4327 503.625 51.1675 501.391 51.1675ZM501.391 49.6601C502.675 49.6601 503.558 48.6189 503.558 46.364C503.558 44.1082 502.675 43.0678 501.391 43.0678C500.12 43.0678 499.237 44.1082 499.237 46.364C499.237 48.6189 500.12 49.6601 501.391 49.6601ZM508.572 46.7238C507.234 46.7238 506.337 45.6965 506.337 44.1622C506.337 42.6269 507.234 41.5997 508.572 41.5997C509.91 41.5997 510.819 42.6139 510.819 44.1622C510.819 45.7096 509.91 46.7238 508.572 46.7238ZM507.796 51.0342L514.19 41.6929H515.501L509.107 51.0342H507.796ZM508.572 45.7898C509.294 45.7898 509.722 45.2025 509.722 44.1622C509.722 43.121 509.294 42.5337 508.572 42.5337C507.876 42.5337 507.421 43.134 507.421 44.1622C507.421 45.1894 507.876 45.7898 508.572 45.7898ZM514.711 51.1274C513.373 51.1274 512.477 50.1001 512.477 48.5658C512.477 47.0314 513.373 46.0032 514.711 46.0032C516.049 46.0032 516.958 47.0314 516.958 48.5658C516.958 50.1001 516.049 51.1274 514.711 51.1274ZM514.711 50.1934C515.42 50.1934 515.862 49.593 515.862 48.5658C515.862 47.5385 515.42 46.9373 514.711 46.9373C514.002 46.9373 513.561 47.5246 513.561 48.5658C513.561 49.6061 514.002 50.1934 514.711 50.1934Z" fill="#45B68D"/>
<path d="M180.52 267.454C180.52 269.269 179.182 270.835 176.382 271.119V273.111H174.92V271.137C173.172 271.03 171.477 270.461 170.551 269.66L171.353 267.863C172.227 268.575 173.565 269.09 174.92 269.215V265.657C172.94 265.176 170.818 264.536 170.818 262.062C170.818 260.247 172.138 258.664 174.92 258.398V256.387H176.382V258.362C177.702 258.433 179.04 258.825 180.003 259.447L179.271 261.244C178.326 260.693 177.327 260.39 176.382 260.283V263.877C178.362 264.357 180.52 264.98 180.52 267.454ZM173.118 261.956C173.118 262.81 173.885 263.201 174.92 263.504V260.336C173.654 260.532 173.118 261.173 173.118 261.956ZM176.382 269.18C177.684 268.984 178.237 268.379 178.237 267.614C178.237 266.742 177.452 266.333 176.382 266.03V269.18ZM185.084 269.02H190.969V270.977H181.766V269.428L186.725 264.731C187.938 263.575 188.152 262.846 188.152 262.151C188.152 261.012 187.367 260.355 185.833 260.355C184.621 260.355 183.604 260.763 182.908 261.654L181.285 260.408C182.249 259.109 183.978 258.344 186.029 258.344C188.74 258.344 190.488 259.714 190.488 261.92C190.488 263.13 190.149 264.234 188.419 265.853L185.084 269.02ZM193.873 271.101C193.07 271.101 192.41 270.478 192.41 269.624C192.41 268.735 193.07 268.148 193.873 268.148C194.676 268.148 195.335 268.735 195.335 269.624C195.335 270.478 194.676 271.101 193.873 271.101ZM207.877 266.191V268.148H205.666V270.977H203.419V268.148H196.571V266.546L202.724 258.521H205.202L199.407 266.191H203.491V263.681H205.666V266.191H207.877ZM207.759 258.521H212.717V270.977H210.398V260.461H207.759V258.521Z" fill="white"/>
<path d="M212.179 278.016H153.101C151.87 278.016 150.872 279.011 150.872 280.24V299.145C150.872 300.373 151.87 301.369 153.101 301.369H212.179C213.41 301.369 214.408 300.373 214.408 299.145V280.24C214.408 279.011 213.41 278.016 212.179 278.016Z" fill="url(#paint5_linear_645_3771)" fill-opacity="0.1"/>
<path d="M162.672 291.405V290.017H166.35V291.405H162.672ZM169.843 292.954H174.257V294.421H167.355V293.26L171.074 289.737C171.984 288.87 172.143 288.323 172.143 287.802C172.143 286.948 171.555 286.455 170.405 286.455C169.495 286.455 168.733 286.761 168.212 287.429L166.994 286.495C167.716 285.52 169.013 284.946 170.552 284.946C172.585 284.946 173.896 285.974 173.896 287.629C173.896 288.536 173.642 289.364 172.344 290.578L169.843 292.954ZM176.435 294.514C175.833 294.514 175.338 294.047 175.338 293.407C175.338 292.739 175.833 292.299 176.435 292.299C177.037 292.299 177.531 292.739 177.531 293.407C177.531 294.047 177.037 294.514 176.435 294.514ZM186.938 290.831V292.299H185.28V294.421H183.594V292.299H178.458V291.099L183.073 285.08H184.932L180.585 290.831H183.648V288.95H185.28V290.831H186.938ZM186.849 285.08H190.568V294.421H188.829V286.535H186.849V285.08ZM194.512 290.111C193.174 290.111 192.278 289.083 192.278 287.549C192.278 286.014 193.174 284.986 194.512 284.986C195.849 284.986 196.759 286.001 196.759 287.549C196.759 289.096 195.849 290.111 194.512 290.111ZM193.736 294.421L200.13 285.08H201.44L195.047 294.421H193.736ZM194.512 289.176C195.234 289.176 195.662 288.589 195.662 287.549C195.662 286.508 195.234 285.92 194.512 285.92C193.816 285.92 193.361 286.521 193.361 287.549C193.361 288.576 193.816 289.176 194.512 289.176ZM200.651 294.514C199.314 294.514 198.418 293.487 198.418 291.952C198.418 290.418 199.314 289.39 200.651 289.39C201.989 289.39 202.898 290.418 202.898 291.952C202.898 293.487 201.989 294.514 200.651 294.514ZM200.651 293.58C201.36 293.58 201.802 292.98 201.802 291.952C201.802 290.925 201.36 290.324 200.651 290.324C199.943 290.324 199.501 290.911 199.501 291.952C199.501 292.993 199.943 293.58 200.651 293.58Z" fill="#E8503A"/>
<path d="M311.791 391.103L329.664 365.946C330.459 364.827 332.07 364.686 333.05 365.65L345.572 377.988C346.663 379.063 348.491 378.743 349.151 377.362L367.046 339.896C367.972 337.958 370.84 338.323 371.248 340.432L378.983 380.444C379.443 382.82 382.836 382.859 383.351 380.495L388.351 357.505C388.751 355.668 391.115 355.123 392.281 356.601L405.944 373.907C407.088 375.357 409.402 374.866 409.857 373.077L423.347 319.906C423.905 317.707 427.019 317.655 427.65 319.834L439.116 359.378C439.732 361.5 442.738 361.525 443.388 359.413L459.346 307.631C459.981 305.566 462.896 305.527 463.588 307.573L481.471 360.428C482.148 362.431 484.981 362.45 485.685 360.456L525.921 246.485C526.602 244.559 529.305 244.488 530.085 246.375L556.397 310.007C557.137 311.796 559.656 311.855 560.477 310.101L605.763 213.431C606.624 211.592 609.301 211.771 609.91 213.708L642.156 316.35C642.801 318.405 645.705 318.437 646.395 316.396L659.126 278.77C659.757 276.901 662.333 276.717 663.227 278.477L677.733 307.062C678.638 308.844 681.256 308.626 681.851 306.719L700.181 248.024C700.838 245.922 703.829 245.948 704.45 248.062L736.401 357.031C737.013 359.119 739.955 359.179 740.653 357.117L749.326 331.482C750.072 329.276 753.282 329.551 753.641 331.85L763.319 393.832" stroke="url(#paint6_linear_645_3771)" stroke-width="1.2763"/>
<path d="M0.874023 370.387L11.9477 357.325C12.8394 356.273 14.4653 356.275 15.3549 357.328L20.4932 363.414C21.4846 364.588 23.3422 364.431 24.1211 363.107L34.4727 345.506C35.5638 343.651 38.3963 344.268 38.6135 346.408L40.3082 363.104C40.5529 365.514 43.936 365.853 44.6555 363.539L46.8667 356.427C47.4266 354.626 49.8374 354.294 50.866 355.876L56.9501 365.23C57.6856 366.361 59.2523 366.584 60.2758 365.704L69.1374 358.083L83.4257 346.106C84.6646 345.068 86.5648 345.651 87.005 347.204L94.355 373.14C94.914 375.111 97.6214 375.344 98.5105 373.498L102.513 365.181C102.632 364.935 102.794 364.713 102.993 364.526L122.977 345.73C123.841 344.917 125.191 344.922 126.048 345.741L148.534 367.223C149.527 368.171 151.135 368.006 151.913 366.876L175.488 332.665C176.541 331.137 178.896 331.49 179.452 333.26L185.959 353.973L192.129 371.972C192.701 373.64 194.897 374.014 195.99 372.629L207.906 357.531C208.999 356.147 211.195 356.519 211.767 358.187L216.663 372.473C217.223 374.108 219.357 374.508 220.476 373.189L232.219 359.326L245.454 341.898C246.439 340.602 248.441 340.764 249.202 342.203L266.707 375.275" stroke="url(#paint7_linear_645_3771)" stroke-width="1.2763"/>
<path d="M429.346 148.031L293.825 133.821C278.474 132.211 264.721 143.321 263.105 158.635L241.352 364.869C239.737 380.184 250.871 393.903 266.222 395.513L401.743 409.723C417.094 411.332 430.847 400.223 432.463 384.909L454.216 178.674C455.831 163.36 444.697 149.641 429.346 148.031Z" fill="url(#paint8_linear_645_3771)"/>
<path d="M289.144 168.939C290.544 169.085 291.745 169.488 292.744 170.145C293.757 170.803 294.496 171.671 294.963 172.748C295.442 173.814 295.613 175.014 295.471 176.349C295.33 177.682 294.915 178.821 294.222 179.764C293.544 180.695 292.642 181.378 291.514 181.812C290.399 182.247 289.141 182.392 287.74 182.245L283.077 181.756L284.481 168.449L289.144 168.939ZM287.883 179.966C289.285 180.113 290.408 179.845 291.253 179.163C292.097 178.481 292.592 177.447 292.739 176.062C292.885 174.676 292.617 173.556 291.934 172.7C291.253 171.833 290.212 171.325 288.811 171.178L286.919 170.98L285.992 179.768L287.883 179.966ZM307.196 178.715C307.156 179.096 307.095 179.436 307.012 179.736L299.272 178.925C299.255 179.693 299.46 180.319 299.886 180.801C300.311 181.282 300.868 181.559 301.557 181.631C302.55 181.736 303.302 181.384 303.813 180.576L306.697 180.879C306.285 181.864 305.61 182.641 304.675 183.211C303.739 183.769 302.641 183.981 301.38 183.849C300.361 183.742 299.468 183.424 298.699 182.893C297.945 182.351 297.382 181.643 297.011 180.77C296.652 179.896 296.53 178.92 296.643 177.839C296.758 176.747 297.082 175.81 297.616 175.031C298.149 174.251 298.84 173.681 299.689 173.321C300.539 172.96 301.486 172.835 302.53 172.944C303.537 173.05 304.413 173.36 305.157 173.875C305.914 174.392 306.467 175.072 306.815 175.918C307.178 176.753 307.305 177.685 307.196 178.715ZM304.506 177.662C304.565 176.974 304.375 176.402 303.934 175.944C303.494 175.474 302.923 175.202 302.223 175.129C301.56 175.059 300.978 175.204 300.477 175.563C299.99 175.909 299.657 176.434 299.481 177.134L304.506 177.662ZM312.194 175.692C312.592 175.22 313.107 174.856 313.739 174.602C314.384 174.348 315.095 174.262 315.872 174.344C316.777 174.438 317.568 174.746 318.247 175.267C318.939 175.789 319.452 176.485 319.785 177.356C320.133 178.215 320.249 179.184 320.136 180.264C320.021 181.345 319.704 182.281 319.182 183.075C318.675 183.857 318.027 184.438 317.24 184.818C316.466 185.199 315.626 185.342 314.722 185.247C313.932 185.164 313.254 184.94 312.688 184.572C312.135 184.193 311.706 183.736 311.402 183.203L311.243 184.71L308.568 184.429L310.056 170.322L312.731 170.602L312.194 175.692ZM317.403 179.977C317.47 179.342 317.394 178.782 317.175 178.296C316.97 177.799 316.663 177.407 316.255 177.12C315.861 176.835 315.414 176.666 314.917 176.614C314.433 176.563 313.962 176.642 313.502 176.851C313.056 177.048 312.675 177.368 312.357 177.811C312.053 178.254 311.868 178.793 311.8 179.429C311.733 180.064 311.802 180.63 312.007 181.128C312.226 181.626 312.531 182.024 312.924 182.322C313.332 182.609 313.778 182.778 314.262 182.828C314.759 182.881 315.231 182.801 315.678 182.591C316.138 182.383 316.52 182.056 316.825 181.613C317.142 181.171 317.335 180.626 317.403 179.977ZM324.122 174.109C323.651 174.06 323.271 173.872 322.984 173.547C322.709 173.21 322.597 172.819 322.643 172.374C322.69 171.929 322.882 171.577 323.219 171.317C323.57 171.045 323.98 170.934 324.452 170.983C324.923 171.033 325.296 171.226 325.569 171.563C325.857 171.888 325.977 172.274 325.93 172.719C325.883 173.164 325.684 173.522 325.334 173.794C324.998 174.053 324.593 174.159 324.122 174.109ZM325.308 175.506L324.194 186.067L321.518 185.787L322.633 175.225L325.308 175.506ZM330.834 178.302L330.295 183.411C330.258 183.767 330.313 184.036 330.461 184.219C330.624 184.39 330.909 184.497 331.316 184.54L332.558 184.67L332.321 186.919L330.64 186.743C328.385 186.507 327.372 185.296 327.603 183.11L328.14 178.02L326.879 177.887L327.11 175.695L328.371 175.827L328.647 173.215L331.341 173.498L331.066 176.11L333.435 176.358L333.204 178.55L330.834 178.302ZM338.853 180.858C338.991 179.55 339.407 178.411 340.102 177.443C340.81 176.464 341.704 175.741 342.784 175.276C343.877 174.8 345.061 174.629 346.335 174.762C347.826 174.919 349.091 175.436 350.131 176.316C351.172 177.196 351.844 178.333 352.148 179.727L349.072 179.405C348.833 178.738 348.45 178.216 347.923 177.839C347.409 177.464 346.789 177.238 346.062 177.162C345.285 177.08 344.571 177.192 343.922 177.496C343.285 177.79 342.76 178.249 342.346 178.874C341.945 179.499 341.698 180.257 341.604 181.147C341.512 182.024 341.596 182.816 341.855 183.525C342.13 184.222 342.547 184.785 343.107 185.218C343.681 185.638 344.357 185.888 345.133 185.969C345.86 186.045 346.513 185.954 347.095 185.693C347.69 185.421 348.174 184.984 348.547 184.38L351.623 184.703C351.034 186.017 350.138 186.995 348.937 187.641C347.75 188.274 346.405 188.512 344.902 188.354C343.627 188.221 342.504 187.814 341.533 187.134C340.576 186.443 339.852 185.55 339.362 184.458C338.884 183.368 338.715 182.167 338.853 180.858ZM353.339 183.746C353.452 182.679 353.762 181.753 354.269 180.972C354.79 180.191 355.436 179.616 356.209 179.247C356.995 178.881 357.84 178.744 358.744 178.839C359.535 178.921 360.206 179.152 360.758 179.531C361.323 179.912 361.758 180.363 362.065 180.883L362.223 179.377L364.917 179.659L363.804 190.221L361.109 189.938L361.272 188.394C360.876 188.854 360.355 189.217 359.709 189.483C359.076 189.738 358.365 189.824 357.575 189.741C356.683 189.647 355.892 189.334 355.202 188.799C354.524 188.265 354.012 187.562 353.666 186.691C353.334 185.807 353.225 184.826 353.339 183.746ZM361.667 184.657C361.735 184.009 361.666 183.444 361.459 182.959C361.254 182.462 360.948 182.07 360.54 181.783C360.134 181.484 359.682 181.308 359.185 181.256C358.689 181.203 358.217 181.277 357.771 181.474C357.325 181.671 356.944 181.991 356.627 182.433C356.323 182.864 356.138 183.397 356.072 184.033C356.005 184.668 356.073 185.24 356.277 185.75C356.495 186.248 356.8 186.646 357.194 186.944C357.6 187.244 358.046 187.419 358.53 187.471C359.026 187.522 359.504 187.451 359.963 187.255C360.423 187.046 360.804 186.726 361.107 186.295C361.412 185.852 361.598 185.306 361.667 184.657ZM370.033 181.853C370.436 181.331 370.928 180.939 371.509 180.678C372.103 180.419 372.757 180.327 373.47 180.402L373.175 183.205L372.468 183.13C371.627 183.042 370.969 183.173 370.495 183.521C370.033 183.871 369.75 184.535 369.647 185.514L369.092 190.775L366.417 190.495L367.53 179.933L370.206 180.214L370.033 181.853ZM374.015 185.914C374.128 184.846 374.438 183.922 374.945 183.139C375.466 182.359 376.119 181.785 376.904 181.418C377.69 181.05 378.536 180.914 379.44 181.009C380.128 181.081 380.768 181.302 381.36 181.673C381.953 182.03 382.408 182.476 382.726 183.011L383.254 177.997L385.968 178.282L384.48 192.388L381.766 192.104L381.931 190.541C381.545 191.027 381.036 191.398 380.404 191.653C379.771 191.907 379.061 191.994 378.271 191.911C377.378 191.818 376.588 191.503 375.897 190.968C375.206 190.433 374.689 189.73 374.342 188.859C374.01 187.976 373.902 186.994 374.015 185.914ZM382.343 186.826C382.411 186.178 382.342 185.611 382.136 185.127C381.93 184.63 381.624 184.238 381.216 183.952C380.81 183.652 380.358 183.476 379.861 183.424C379.365 183.371 378.893 183.444 378.447 183.641C378.001 183.839 377.62 184.159 377.302 184.601C376.999 185.032 376.815 185.565 376.748 186.2C376.681 186.836 376.749 187.408 376.953 187.918C377.171 188.416 377.476 188.814 377.87 189.113C378.276 189.413 378.722 189.588 379.206 189.639C379.702 189.691 380.18 189.619 380.639 189.422C381.099 189.213 381.481 188.894 381.784 188.463C382.088 188.02 382.275 187.473 382.343 186.826Z" fill="#D5D5E0"/>
<path d="M293.827 227.711C293.719 228.732 293.353 229.666 292.725 230.514C292.12 231.344 291.275 232 290.188 232.482C289.125 232.946 287.898 233.155 286.51 233.109L286.258 235.496L284.368 235.297L284.622 232.881C282.673 232.498 281.15 231.743 280.055 230.616C278.961 229.468 278.486 228.028 278.629 226.296L283.059 226.76C283.028 228.186 283.666 229.117 284.974 229.553L285.567 223.925C284.187 223.423 283.083 222.95 282.254 222.505C281.425 222.061 280.737 221.413 280.189 220.561C279.642 219.709 279.441 218.605 279.583 217.251C279.764 215.542 280.521 214.211 281.856 213.259C283.21 212.308 284.87 211.857 286.835 211.904L287.087 209.519L288.977 209.716L288.725 212.103C290.599 212.458 292.045 213.186 293.063 214.285C294.102 215.387 294.599 216.81 294.554 218.552L290.095 218.084C290.096 217.509 289.941 216.996 289.63 216.547C289.341 216.079 288.92 215.727 288.368 215.49L287.78 221.059C289.218 221.587 290.341 222.072 291.151 222.515C291.981 222.939 292.67 223.578 293.218 224.429C293.767 225.261 293.97 226.355 293.827 227.711ZM283.917 217.496C283.849 218.144 283.989 218.695 284.339 219.149C284.691 219.583 285.228 219.967 285.95 220.301L286.487 215.205C285.768 215.228 285.18 215.435 284.72 215.823C284.261 216.212 283.994 216.77 283.917 217.496ZM286.858 229.81C287.621 229.75 288.234 229.506 288.697 229.079C289.18 228.652 289.456 228.106 289.526 227.438C289.594 226.79 289.443 226.248 289.071 225.811C288.699 225.375 288.143 224.99 287.401 224.653L286.858 229.81ZM299.136 229.548C301.192 228.175 302.836 227.027 304.068 226.103C305.302 225.16 306.353 224.158 307.222 223.098C308.09 222.037 308.581 220.956 308.698 219.857C308.803 218.855 308.65 218.044 308.237 217.426C307.825 216.806 307.127 216.445 306.142 216.342C305.158 216.239 304.365 216.493 303.763 217.105C303.163 217.698 302.793 218.562 302.653 219.7L298.637 219.278C298.964 216.93 299.851 215.215 301.299 214.136C302.766 213.059 304.524 212.627 306.571 212.842C308.815 213.078 310.475 213.857 311.55 215.181C312.627 216.486 313.063 218.11 312.857 220.054C312.696 221.586 312.128 223.006 311.153 224.314C310.18 225.622 309.106 226.741 307.933 227.671C306.762 228.58 305.244 229.672 303.378 230.946L312.09 231.859L311.729 235.277L297.14 233.747L297.463 230.683L299.136 229.548ZM314.567 231.643L314.909 228.402L326.021 215.626L330.834 216.131L329.417 229.566L332.016 229.838L331.636 233.432L329.038 233.16L328.597 237.344L324.463 236.91L324.904 232.727L314.567 231.643ZM326.499 220.144L319.494 228.525L325.548 229.16L326.499 220.144ZM335.19 220.162L335.591 216.362L342.708 217.108L340.442 238.585L336.19 238.139L338.055 220.462L335.19 220.162ZM346.809 239.462C346.061 239.383 345.464 239.092 345.02 238.589C344.597 238.068 344.422 237.464 344.494 236.777C344.567 236.089 344.863 235.544 345.383 235.142C345.925 234.722 346.57 234.551 347.318 234.63C348.047 234.706 348.622 235.005 349.045 235.526C349.47 236.027 349.646 236.621 349.573 237.309C349.501 237.996 349.204 238.551 348.682 238.973C348.161 239.375 347.538 239.538 346.809 239.462ZM353.36 228.8C353.719 225.402 354.61 222.804 356.034 221.008C357.477 219.213 359.626 218.465 362.481 218.764C365.336 219.064 367.272 220.24 368.29 222.293C369.327 224.347 369.666 227.074 369.308 230.472C368.947 233.889 368.044 236.506 366.599 238.32C365.173 240.136 363.033 240.894 360.178 240.596C357.324 240.296 355.379 239.109 354.343 237.034C353.328 234.962 353.001 232.217 353.36 228.8ZM365.232 230.044C365.386 228.591 365.415 227.363 365.323 226.36C365.251 225.34 364.963 224.486 364.458 223.797C363.973 223.111 363.18 222.71 362.077 222.594C360.974 222.478 360.104 222.705 359.467 223.274C358.849 223.845 358.39 224.62 358.087 225.601C357.807 226.565 357.589 227.773 357.436 229.227C357.278 230.719 357.235 231.986 357.304 233.026C357.375 234.046 357.663 234.901 358.168 235.589C358.675 236.257 359.48 236.649 360.582 236.765C361.684 236.881 362.553 236.664 363.188 236.115C363.826 235.546 364.286 234.771 364.569 233.788C364.854 232.785 365.075 231.537 365.232 230.044ZM372.452 230.801C372.811 227.404 373.702 224.806 375.125 223.009C376.569 221.214 378.718 220.467 381.573 220.766C384.428 221.065 386.364 222.241 387.381 224.294C388.419 226.35 388.758 229.076 388.4 232.473C388.039 235.891 387.136 238.507 385.69 240.322C384.265 242.138 382.125 242.897 379.27 242.597C376.415 242.298 374.47 241.111 373.435 239.037C372.42 236.964 372.092 234.219 372.452 230.801ZM384.325 232.046C384.477 230.593 384.507 229.364 384.415 228.362C384.343 227.342 384.055 226.487 383.55 225.799C383.065 225.112 382.271 224.712 381.169 224.597C380.066 224.481 379.196 224.707 378.56 225.275C377.941 225.846 377.482 226.622 377.179 227.603C376.898 228.567 376.681 229.776 376.528 231.229C376.37 232.721 376.326 233.987 376.396 235.028C376.467 236.048 376.755 236.902 377.26 237.59C377.766 238.26 378.572 238.652 379.674 238.767C380.776 238.882 381.645 238.666 382.281 238.117C382.918 237.549 383.378 236.772 383.661 235.789C383.946 234.786 384.166 233.539 384.325 232.046Z" fill="#E4E4F0"/>
<mask id="mask0_645_3771" style="mask-type:luminance" maskUnits="userSpaceOnUse" x="266" y="282" width="33" height="52">
<path d="M298.262 284.978L271.161 282.136L266.049 330.663L293.15 333.505L298.262 284.978Z" fill="white"/>
</mask>
<g mask="url(#mask0_645_3771)">
<path d="M277.384 303.113C277.958 303.174 278.474 302.757 278.534 302.185C278.594 301.61 278.177 301.095 277.603 301.034L275.516 300.816C274.943 300.756 274.525 300.242 274.585 299.666C274.647 299.091 275.162 298.677 275.736 298.737L277.822 298.956C279.544 299.136 280.801 300.682 280.62 302.403C280.44 304.122 278.887 305.375 277.164 305.195L276.122 305.085L275.673 309.348C277.996 310.082 279.571 312.368 279.306 314.881C279.182 316.056 278.661 317.086 277.907 317.888L284.214 318.549C283.644 317.608 283.35 316.493 283.473 315.318C283.737 312.808 285.754 310.895 288.18 310.659L288.629 306.396L287.586 306.288C285.864 306.107 284.606 304.558 284.788 302.84C284.969 301.12 286.521 299.868 288.243 300.048L290.33 300.267C290.903 300.327 291.322 300.839 291.261 301.414C291.2 301.989 290.684 302.406 290.11 302.346L288.024 302.127C287.45 302.067 286.935 302.483 286.874 303.059C286.813 303.632 287.231 304.146 287.806 304.206L296.145 305.081L296.364 303.002C296.606 300.703 294.937 298.646 292.633 298.404L273.871 296.437C271.568 296.195 269.505 297.862 269.263 300.16L269.044 302.239L277.384 303.113Z" fill="#E4E4F0"/>
<path d="M290.713 306.615L295.926 307.162L295.488 311.32L290.275 310.773L290.713 306.615ZM273.764 317.454C275.489 317.635 277.038 316.38 277.22 314.662C277.4 312.942 276.145 311.395 274.421 311.215L268.167 310.559L267.948 312.638C267.706 314.936 269.376 316.993 271.68 317.236L273.764 317.454ZM268.825 304.32L274.038 304.867L273.6 309.024L268.387 308.477L268.825 304.32ZM289.014 312.745C287.29 312.564 285.74 313.816 285.559 315.537C285.379 317.255 286.633 318.803 288.358 318.984L290.442 319.202C292.745 319.444 294.807 317.778 295.049 315.48L295.269 313.401L289.014 312.745Z" fill="#E4E4F0"/>
</g>
<path d="M268.675 355.653L269.203 356.891L267.445 357.325L269.075 358.113L268.27 359.251L266.985 357.947L267.096 359.772L265.74 359.629L266.216 357.866L264.697 358.902L264.112 357.58L265.87 357.146L264.251 356.385L265.042 355.259L266.367 356.554L266.257 354.716L267.626 354.86L267.123 356.634L268.675 355.653ZM275.418 356.36L275.946 357.598L274.188 358.032L275.818 358.821L275.014 359.958L273.728 358.653L273.839 360.479L272.484 360.337L272.959 358.573L271.441 359.61L270.856 358.286L272.614 357.853L270.994 357.092L271.785 355.966L273.111 357.262L273.001 355.423L274.369 355.567L273.866 357.341L275.418 356.36ZM282.162 357.067L282.69 358.306L280.932 358.739L282.561 359.527L281.757 360.665L280.471 359.361L280.582 361.186L279.228 361.044L279.703 359.28L278.184 360.317L277.599 358.994L279.357 358.56L277.738 357.799L278.528 356.673L279.854 357.968L279.745 356.131L281.112 356.274L280.609 358.048L282.162 357.067ZM288.905 357.774L289.434 359.012L287.676 359.446L289.304 360.235L288.5 361.372L287.214 360.067L287.325 361.893L285.971 361.751L286.446 359.987L284.927 361.024L284.342 359.701L286.1 359.268L284.481 358.506L285.271 357.38L286.597 358.676L286.488 356.837L287.856 356.981L287.352 358.755L288.905 357.774ZM294.096 365.258C295.003 364.651 295.728 364.145 296.271 363.737C296.815 363.322 297.279 362.88 297.663 362.412C298.045 361.943 298.263 361.467 298.313 360.981C298.359 360.54 298.292 360.182 298.11 359.909C297.928 359.636 297.62 359.477 297.186 359.431C296.752 359.385 296.401 359.498 296.136 359.768C295.871 360.029 295.708 360.411 295.647 360.913L293.875 360.727C294.019 359.69 294.41 358.934 295.049 358.458C295.696 357.982 296.471 357.792 297.374 357.887C298.365 357.991 299.097 358.335 299.571 358.919C300.046 359.495 300.239 360.211 300.148 361.069C300.077 361.745 299.827 362.371 299.397 362.949C298.967 363.526 298.494 364.019 297.977 364.429C297.46 364.831 296.791 365.312 295.967 365.874L299.811 366.277L299.652 367.785L293.216 367.11L293.359 365.758L294.096 365.258ZM300.904 366.181L301.055 364.752L305.955 359.115L308.079 359.338L307.455 365.265L308.601 365.385L308.435 366.971L307.288 366.851L307.094 368.697L305.27 368.505L305.464 366.66L300.904 366.181ZM306.166 361.109L303.077 364.806L305.748 365.086L306.166 361.109ZM310.001 361.116L310.177 359.44L313.318 359.769L312.32 369.245L310.444 369.048L311.264 361.249L310.001 361.116Z" fill="#D5D5E0"/>
<path d="M374.63 364.762L370.583 373.486C370.583 373.486 370.485 372.698 370.463 372.213C369.114 368.086 366.408 366.344 366.408 366.344L368.04 376.919L371.765 377.309L378.249 365.137L374.631 364.758L374.63 364.762ZM376.244 377.779L379.621 378.133L383.006 365.64L379.584 365.281L376.244 377.779Z" fill="#E4E4F0"/>
<path d="M370.388 371.441L369.858 365.553C369.858 365.553 369.474 364.248 368.139 364.108C366.8 363.967 362.908 363.56 362.908 363.56C362.908 363.56 369.363 366.288 370.388 371.441ZM387.42 369.78C387.498 369.043 388.142 368.555 389.826 368.731C390.92 368.846 392.082 369.799 392.082 369.799L392.924 367.05C392.924 367.05 391.391 366.257 389.823 366.092C386.267 365.72 384.246 367.284 384.012 369.504C383.59 373.516 388.337 373.463 388.12 375.527C388.083 375.876 387.723 376.665 385.771 376.46C383.814 376.255 382.602 375.378 382.602 375.378L381.736 378.011C381.736 378.011 382.907 378.883 385.33 379.138C387.754 379.392 391.314 377.873 391.597 375.183C391.938 371.948 387.268 371.223 387.42 369.78ZM401.507 367.58L397.952 367.207L391.065 379.332L394.424 379.685L395.309 377.943L399.541 378.387L399.713 380.239L402.79 380.562L401.507 367.58ZM396.501 375.611L398.847 371.005L399.309 375.905L396.501 375.611Z" fill="#E4E4F0"/>
<path d="M573.817 81.4269L438.875 100.347C423.59 102.49 412.939 116.589 415.085 131.839L443.988 337.197C446.135 352.446 460.265 363.071 475.55 360.928L610.492 342.008C625.777 339.864 636.428 325.765 634.282 310.516L605.378 105.158C603.232 89.9084 589.102 79.2838 573.817 81.4269Z" fill="url(#paint9_radial_645_3771)"/>
<path d="M442.848 135.552C444.244 135.356 445.506 135.457 446.635 135.853C447.777 136.248 448.705 136.912 449.418 137.844C450.142 138.762 450.598 139.885 450.785 141.214C450.972 142.543 450.844 143.748 450.402 144.829C449.969 145.897 449.259 146.777 448.27 147.47C447.294 148.162 446.108 148.606 444.712 148.802L440.07 149.452L438.205 136.202L442.848 135.552ZM444.299 146.556C445.695 146.36 446.72 145.829 447.374 144.963C448.028 144.097 448.258 142.975 448.064 141.596C447.87 140.217 447.338 139.194 446.468 138.529C445.596 137.851 444.464 137.61 443.068 137.805L441.184 138.07L442.416 146.82L444.299 146.556ZM462.735 140.681C462.788 141.06 462.811 141.405 462.803 141.716L455.098 142.796C455.268 143.548 455.618 144.104 456.147 144.469C456.678 144.834 457.285 144.968 457.97 144.872C458.96 144.733 459.604 144.211 459.903 143.304L462.776 142.901C462.615 143.956 462.148 144.873 461.378 145.652C460.607 146.419 459.593 146.89 458.337 147.066C457.322 147.208 456.378 147.115 455.504 146.785C454.641 146.442 453.923 145.89 453.35 145.132C452.79 144.372 452.435 143.454 452.284 142.378C452.13 141.29 452.218 140.304 452.546 139.418C452.874 138.534 453.407 137.813 454.144 137.258C454.88 136.704 455.768 136.353 456.809 136.208C457.811 136.067 458.735 136.157 459.582 136.477C460.443 136.795 461.144 137.323 461.687 138.059C462.242 138.781 462.591 139.655 462.735 140.681ZM459.87 140.308C459.761 139.627 459.437 139.117 458.898 138.78C458.357 138.429 457.738 138.303 457.04 138.402C456.381 138.494 455.85 138.775 455.451 139.243C455.063 139.698 454.867 140.287 454.865 141.009L459.87 140.308ZM466.852 136.541C467.123 135.987 467.534 135.511 468.086 135.111C468.651 134.709 469.319 134.454 470.093 134.345C470.994 134.218 471.837 134.326 472.623 134.668C473.42 135.008 474.086 135.559 474.621 136.324C475.166 137.073 475.514 137.985 475.666 139.061C475.817 140.136 475.736 141.123 475.423 142.018C475.119 142.899 474.632 143.62 473.961 144.178C473.302 144.735 472.522 145.077 471.622 145.203C470.835 145.314 470.122 145.259 469.484 145.038C468.856 144.804 468.329 144.464 467.905 144.021L468.115 145.52L465.451 145.894L463.475 131.847L466.139 131.473L466.852 136.541ZM472.945 139.443C472.856 138.81 472.646 138.284 472.316 137.866C471.996 137.434 471.604 137.127 471.139 136.947C470.686 136.765 470.213 136.71 469.718 136.778C469.236 136.846 468.797 137.037 468.402 137.35C468.016 137.65 467.724 138.052 467.524 138.558C467.336 139.061 467.286 139.629 467.375 140.262C467.464 140.895 467.669 141.428 467.989 141.861C468.32 142.291 468.714 142.604 469.168 142.798C469.633 142.979 470.107 143.034 470.589 142.967C471.084 142.898 471.522 142.707 471.906 142.395C472.301 142.082 472.593 141.672 472.781 141.169C472.982 140.664 473.036 140.088 472.945 139.443ZM478.042 132.127C477.572 132.193 477.159 132.103 476.801 131.856C476.453 131.595 476.249 131.243 476.186 130.8C476.124 130.357 476.224 129.969 476.488 129.635C476.762 129.287 477.134 129.079 477.603 129.014C478.072 128.948 478.481 129.045 478.828 129.307C479.186 129.553 479.396 129.898 479.458 130.341C479.521 130.784 479.415 131.179 479.14 131.528C478.878 131.862 478.511 132.061 478.042 132.127ZM479.531 133.196L481.011 143.712L478.347 144.086L476.867 133.569L479.531 133.196ZM485.571 134.575L486.287 139.662C486.337 140.017 486.456 140.264 486.644 140.406C486.843 140.533 487.146 140.568 487.551 140.511L488.788 140.338L489.104 142.578L487.429 142.812C485.184 143.128 483.908 142.196 483.602 140.02L482.888 134.951L481.632 135.127L481.326 132.945L482.582 132.769L482.215 130.168L484.898 129.791L485.264 132.392L487.623 132.061L487.931 134.245L485.571 134.575ZM493.971 135.12C493.788 133.817 493.915 132.612 494.354 131.504C494.805 130.383 495.497 129.467 496.432 128.755C497.377 128.029 498.485 127.576 499.753 127.399C501.237 127.191 502.59 127.388 503.814 127.991C505.036 128.594 505.965 129.535 506.597 130.814L503.534 131.244C503.14 130.653 502.643 130.239 502.04 130.001C501.45 129.762 500.794 129.692 500.071 129.793C499.297 129.902 498.631 130.183 498.074 130.635C497.527 131.073 497.13 131.645 496.879 132.35C496.643 133.055 496.586 133.85 496.711 134.736C496.834 135.609 497.107 136.358 497.532 136.982C497.967 137.592 498.508 138.039 499.156 138.322C499.815 138.592 500.531 138.672 501.305 138.564C502.028 138.462 502.64 138.215 503.14 137.822C503.652 137.414 504.016 136.873 504.231 136.198L507.295 135.769C507.042 137.185 506.41 138.351 505.401 139.267C504.402 140.168 503.154 140.724 501.657 140.934C500.389 141.111 499.202 140.988 498.093 140.562C496.997 140.122 496.078 139.431 495.338 138.49C494.61 137.547 494.154 136.424 493.971 135.12ZM508.727 134.426C508.578 133.363 508.654 132.39 508.957 131.509C509.272 130.626 509.761 129.912 510.422 129.368C511.095 128.822 511.882 128.486 512.782 128.36C513.569 128.249 514.276 128.312 514.904 128.546C515.545 128.779 516.077 129.111 516.499 129.542L516.288 128.043L518.971 127.666L520.451 138.182L517.768 138.558L517.552 137.021C517.279 137.563 516.861 138.041 516.299 138.455C515.747 138.855 515.078 139.11 514.292 139.221C513.403 139.344 512.56 139.231 511.76 138.878C510.973 138.524 510.306 137.966 509.759 137.204C509.223 136.427 508.878 135.501 508.727 134.426ZM517.029 133.3C516.938 132.655 516.733 132.122 516.416 131.702C516.096 131.27 515.704 130.963 515.238 130.783C514.772 130.59 514.291 130.529 513.796 130.598C513.301 130.668 512.862 130.852 512.477 131.151C512.092 131.45 511.8 131.853 511.599 132.358C511.409 132.85 511.359 133.412 511.448 134.044C511.537 134.677 511.742 135.216 512.064 135.661C512.396 136.092 512.789 136.405 513.243 136.599C513.711 136.791 514.185 136.854 514.667 136.787C515.161 136.717 515.608 136.532 516.005 136.231C516.401 135.918 516.693 135.515 516.883 135.024C517.071 134.521 517.12 133.946 517.029 133.3ZM524.466 128.56C524.731 127.955 525.113 127.456 525.614 127.064C526.127 126.669 526.74 126.422 527.45 126.323L527.843 129.113L527.139 129.212C526.301 129.329 525.695 129.614 525.319 130.067C524.955 130.518 524.843 131.231 524.98 132.205L525.717 137.444L523.053 137.818L521.573 127.301L524.237 126.927L524.466 128.56ZM529.315 131.539C529.166 130.476 529.242 129.504 529.545 128.623C529.86 127.739 530.355 127.025 531.029 126.479C531.702 125.932 532.489 125.597 533.389 125.471C534.074 125.374 534.749 125.435 535.413 125.651C536.076 125.855 536.625 126.178 537.063 126.62L536.361 121.627L539.062 121.249L541.039 135.295L538.337 135.674L538.119 134.118C537.862 134.683 537.457 135.166 536.906 135.565C536.354 135.965 535.685 136.221 534.899 136.331C534.01 136.455 533.167 136.342 532.367 135.989C531.567 135.637 530.893 135.079 530.347 134.317C529.81 133.541 529.466 132.614 529.315 131.539ZM537.616 130.413C537.526 129.769 537.321 129.235 537.003 128.815C536.684 128.383 536.292 128.077 535.826 127.896C535.36 127.704 534.878 127.643 534.384 127.712C533.889 127.781 533.45 127.965 533.064 128.265C532.68 128.564 532.388 128.966 532.187 129.472C531.997 129.963 531.947 130.525 532.036 131.158C532.125 131.79 532.33 132.329 532.651 132.775C532.984 133.205 533.377 133.518 533.831 133.712C534.299 133.905 534.773 133.968 535.255 133.9C535.749 133.831 536.195 133.645 536.593 133.345C536.989 133.031 537.281 132.628 537.471 132.138C537.658 131.634 537.707 131.059 537.616 130.413Z" fill="#D5D5E0"/>
<path d="M461.644 191.446C461.787 192.463 461.657 193.459 461.254 194.433C460.868 195.385 460.207 196.224 459.27 196.955C458.35 197.662 457.212 198.161 455.853 198.451L456.187 200.827L454.305 201.091L453.967 198.685C451.982 198.784 450.321 198.418 448.984 197.589C447.646 196.739 446.835 195.457 446.554 193.741L450.965 193.124C451.28 194.515 452.126 195.264 453.5 195.371L452.711 189.767C451.251 189.613 450.064 189.42 449.152 189.19C448.239 188.958 447.415 188.495 446.678 187.801C445.94 187.106 445.476 186.085 445.287 184.735C445.047 183.034 445.46 181.56 446.523 180.314C447.607 179.065 449.108 178.226 451.027 177.798L450.693 175.421L452.574 175.157L452.908 177.534C454.812 177.426 456.392 177.783 457.647 178.605C458.922 179.423 459.749 180.683 460.129 182.385L455.688 183.008C455.55 182.448 455.275 181.988 454.864 181.627C454.47 181.244 453.977 181.004 453.384 180.908L454.164 186.452C455.687 186.617 456.894 186.817 457.786 187.051C458.696 187.263 459.519 187.715 460.257 188.41C460.991 189.085 461.453 190.097 461.644 191.446ZM449.55 183.928C449.641 184.573 449.912 185.073 450.362 185.43C450.809 185.766 451.423 186.008 452.204 186.158L451.489 181.084C450.798 181.28 450.276 181.622 449.925 182.11C449.574 182.598 449.449 183.205 449.55 183.928ZM455.391 195.165C456.116 194.924 456.652 194.539 456.998 194.012C457.363 193.482 457.498 192.885 457.405 192.22C457.314 191.575 457.035 191.086 456.568 190.752C456.101 190.419 455.468 190.178 454.667 190.031L455.391 195.165ZM467.24 191.948C468.902 190.119 470.219 188.608 471.191 187.416C472.159 186.203 472.936 184.977 473.522 183.738C474.107 182.5 474.322 181.332 474.168 180.237C474.028 179.239 473.682 178.49 473.132 177.989C472.582 177.488 471.817 177.306 470.836 177.443C469.856 177.581 469.149 178.019 468.713 178.758C468.274 179.478 468.125 180.406 468.265 181.543L464.266 182.104C464.014 179.746 464.46 177.869 465.602 176.472C466.764 175.073 468.365 174.23 470.404 173.944C472.639 173.631 474.438 173.987 475.802 175.012C477.163 176.018 477.979 177.489 478.252 179.425C478.467 180.95 478.26 182.466 477.632 183.97C477.005 185.473 476.234 186.818 475.321 188.003C474.405 189.169 473.197 190.594 471.695 192.281L480.37 191.065L480.849 194.468L466.322 196.504L465.893 193.453L467.24 191.948ZM482.722 190.256L482.267 187.029L489.95 171.952L494.743 171.279L496.626 184.657L499.214 184.294L499.718 187.873L497.13 188.235L497.716 192.402L493.599 192.979L493.013 188.813L482.722 190.256ZM491.511 176.22L486.746 186.042L492.774 185.197L491.511 176.22ZM499.948 174.139L499.415 170.355L506.501 169.361L509.512 190.747L505.277 191.342L502.8 173.74L499.948 174.139ZM515.901 190.062C515.156 190.165 514.507 190.028 513.954 189.646C513.417 189.243 513.101 188.699 513.005 188.014C512.908 187.33 513.063 186.73 513.471 186.214C513.895 185.676 514.479 185.355 515.224 185.25C515.949 185.148 516.58 185.299 517.117 185.703C517.651 186.087 517.966 186.621 518.062 187.305C518.158 187.99 518.005 188.6 517.6 189.136C517.193 189.651 516.626 189.96 515.901 190.062ZM519.673 178.134C519.197 174.751 519.432 172.016 520.377 169.928C521.342 167.839 523.246 166.595 526.088 166.197C528.931 165.798 531.095 166.472 532.58 168.218C534.085 169.962 535.075 172.525 535.552 175.908C536.031 179.312 535.789 182.067 534.826 184.177C533.883 186.284 531.991 187.536 529.149 187.935C526.306 188.333 524.131 187.651 522.623 185.888C521.136 184.122 520.152 181.538 519.673 178.134ZM531.494 176.477C531.29 175.03 531.021 173.831 530.687 172.88C530.371 171.908 529.884 171.148 529.228 170.603C528.591 170.054 527.723 169.856 526.625 170.01C525.528 170.164 524.739 170.594 524.258 171.299C523.798 172.002 523.539 172.866 523.483 173.891C523.445 174.893 523.527 176.118 523.731 177.565C523.94 179.052 524.204 180.292 524.524 181.283C524.841 182.257 525.328 183.015 525.984 183.562C526.638 184.089 527.514 184.274 528.612 184.121C529.709 183.967 530.5 183.547 530.983 182.861C531.463 182.155 531.722 181.292 531.757 180.269C531.791 179.228 531.703 177.964 531.494 176.477ZM538.683 175.469C538.207 172.086 538.441 169.351 539.387 167.263C540.352 165.174 542.256 163.929 545.099 163.531C547.942 163.132 550.105 163.806 551.591 165.553C553.095 167.296 554.086 169.86 554.562 173.243C555.041 176.646 554.799 179.402 553.837 181.512C552.894 183.618 551.001 184.87 548.158 185.27C545.316 185.668 543.141 184.985 541.633 183.223C540.145 181.457 539.162 178.872 538.683 175.469ZM550.504 173.812C550.301 172.365 550.032 171.166 549.698 170.215C549.381 169.243 548.894 168.483 548.238 167.937C547.601 167.389 546.734 167.191 545.636 167.345C544.538 167.498 543.749 167.928 543.268 168.634C542.807 169.337 542.549 170.2 542.494 171.226C542.455 172.228 542.537 173.453 542.741 174.9C542.95 176.387 543.214 177.626 543.534 178.618C543.851 179.591 544.337 180.35 544.994 180.896C545.648 181.424 546.524 181.609 547.622 181.456C548.72 181.302 549.51 180.882 549.993 180.196C550.474 179.49 550.732 178.627 550.768 177.604C550.801 176.563 550.713 175.298 550.504 173.812Z" fill="#E4E4F0"/>
<mask id="mask1_645_3771" style="mask-type:luminance" maskUnits="userSpaceOnUse" x="452" y="245" width="35" height="54">
<path d="M479.835 245.942L452.85 249.726L459.657 298.046L486.642 294.262L479.835 245.942Z" fill="white"/>
</mask>
<g mask="url(#mask1_645_3771)">
<path d="M463.974 268.58C464.545 268.5 464.944 267.971 464.864 267.4C464.783 266.828 464.253 266.429 463.682 266.51L461.604 266.801C461.033 266.881 460.503 266.483 460.423 265.91C460.341 265.337 460.741 264.811 461.313 264.731L463.39 264.439C465.105 264.199 466.7 265.396 466.941 267.109C467.182 268.82 465.981 270.411 464.265 270.652L463.227 270.797L463.824 275.042C466.257 275.193 468.339 277.032 468.692 279.534C468.857 280.703 468.601 281.828 468.064 282.789L474.344 281.909C473.562 281.133 473.006 280.122 472.841 278.952C472.489 276.453 473.983 274.11 476.279 273.295L475.681 269.051L474.642 269.197C472.927 269.437 471.332 268.238 471.091 266.527C470.85 264.814 472.052 263.225 473.767 262.984L475.845 262.693C476.416 262.613 476.946 263.01 477.026 263.582C477.106 264.154 476.707 264.683 476.136 264.764L474.058 265.055C473.487 265.135 473.087 265.664 473.169 266.236C473.249 266.807 473.779 267.205 474.35 267.125L482.655 265.961L482.363 263.89C482.041 261.602 479.921 260.009 477.627 260.33L458.946 262.949C456.652 263.271 455.055 265.386 455.377 267.674L455.669 269.744L463.974 268.58Z" fill="#E4E4F0"/>
<path d="M477.756 268.761L482.946 268.032L483.53 272.173L478.339 272.9L477.756 268.761ZM463.938 283.368C465.655 283.127 466.855 281.536 466.614 279.825C466.373 278.112 464.78 276.914 463.063 277.156L456.836 278.029L457.128 280.099C457.45 282.387 459.57 283.981 461.863 283.659L463.938 283.368ZM455.961 271.816L461.152 271.089L461.735 275.228L456.544 275.956L455.961 271.816ZM477.595 275.118C475.877 275.359 474.677 276.947 474.919 278.66C475.16 280.372 476.752 281.571 478.47 281.33L480.544 281.039C482.839 280.718 484.435 278.603 484.113 276.315L483.821 274.245L477.595 275.118Z" fill="#E4E4F0"/>
</g>
<path d="M468.264 321.66L469.077 322.735L467.476 323.579L469.248 323.951L468.743 325.249L467.18 324.294L467.73 326.038L466.381 326.227L466.414 324.401L465.192 325.773L464.304 324.631L465.904 323.786L464.148 323.439L464.643 322.155L466.243 323.092L465.691 321.335L467.053 321.144L466.996 322.987L468.264 321.66ZM474.978 320.719L475.791 321.793L474.19 322.638L475.962 323.009L475.458 324.307L473.894 323.352L474.445 325.097L473.095 325.286L473.129 323.46L471.907 324.832L471.018 323.69L472.619 322.845L470.863 322.497L471.357 321.213L472.957 322.151L472.405 320.394L473.768 320.203L473.71 322.046L474.978 320.719ZM481.693 319.778L482.506 320.852L480.905 321.696L482.677 322.068L482.172 323.366L480.609 322.411L481.159 324.155L479.81 324.344L479.844 322.518L478.621 323.89L477.733 322.748L479.334 321.904L477.578 321.556L478.072 320.272L479.672 321.209L479.12 319.452L480.482 319.261L480.424 321.104L481.693 319.778ZM488.407 318.837L489.22 319.91L487.619 320.755L489.391 321.126L488.886 322.425L487.323 321.47L487.873 323.214L486.524 323.403L486.558 321.577L485.335 322.949L484.447 321.807L486.048 320.962L484.293 320.614L484.786 319.331L486.387 320.268L485.835 318.511L487.196 318.32L487.139 320.163L488.407 318.837ZM495.258 324.844C495.991 324.037 496.572 323.371 497.001 322.845C497.428 322.31 497.77 321.768 498.029 321.222C498.287 320.676 498.382 320.161 498.313 319.677C498.251 319.237 498.1 318.907 497.857 318.686C497.614 318.464 497.276 318.384 496.844 318.445C496.411 318.505 496.099 318.699 495.906 319.026C495.713 319.343 495.647 319.752 495.709 320.254L493.945 320.502C493.834 319.461 494.031 318.633 494.534 318.017C495.047 317.4 495.753 317.028 496.652 316.901C497.638 316.763 498.432 316.92 499.034 317.373C499.635 317.816 499.995 318.465 500.115 319.319C500.21 319.993 500.12 320.661 499.843 321.324C499.565 321.988 499.226 322.581 498.824 323.103C498.419 323.618 497.886 324.247 497.224 324.991L501.051 324.455L501.263 325.956L494.854 326.854L494.664 325.508L495.258 324.844ZM502.088 324.097L501.887 322.674L505.276 316.022L507.39 315.726L508.223 321.627L509.364 321.467L509.587 323.047L508.445 323.206L508.704 325.045L506.888 325.299L506.629 323.461L502.088 324.097ZM505.965 317.905L503.864 322.239L506.523 321.866L505.965 317.905ZM509.686 316.988L509.451 315.318L512.578 314.88L513.908 324.314L512.04 324.577L510.945 316.811L509.686 316.988Z" fill="#D5D5E0"/>
<path d="M573.282 304.927L571.47 314.368C571.47 314.368 571.184 313.628 571.046 313.162C568.736 309.484 565.688 308.446 565.688 308.446L569.834 318.313L573.545 317.793L576.885 304.417L573.281 304.923L573.282 304.927ZM578.005 317.167L581.367 316.696L581.621 303.758L578.214 304.235L578.005 317.167Z" fill="#E4E4F0"/>
<path d="M570.784 312.431L568.841 306.847C568.841 306.847 568.152 305.673 566.824 305.86C565.49 306.046 561.615 306.59 561.615 306.59C561.615 306.59 568.54 307.678 570.784 312.431ZM586.908 306.709C586.804 305.975 587.311 305.346 588.988 305.111C590.076 304.958 591.435 305.603 591.435 305.603L591.586 302.733C591.586 302.733 589.906 302.333 588.345 302.551C584.804 303.048 583.222 305.053 583.534 307.264C584.097 311.259 588.689 310.061 588.979 312.117C589.028 312.464 588.871 313.316 586.927 313.589C584.978 313.862 583.59 313.303 583.59 313.303L583.388 316.068C583.388 316.068 584.737 316.632 587.149 316.294C589.561 315.955 592.648 313.621 592.27 310.943C591.816 307.723 587.11 308.146 586.908 306.709ZM600.043 301.175L596.502 301.671L592.76 315.098L596.105 314.63L596.542 312.727L600.756 312.135L601.372 313.891L604.435 313.461L600.043 301.175ZM597.132 310.175L598.292 305.14L599.929 309.783L597.132 310.175Z" fill="#E4E4F0"/>
<path d="M573.938 82.2904L438.996 101.211C424.189 103.287 413.871 116.945 415.95 131.718L444.853 337.077C446.932 351.849 460.621 362.142 475.429 360.066L610.371 341.145C625.178 339.069 635.496 325.411 633.417 310.638L604.514 105.279C602.435 90.5068 588.745 80.2142 573.938 82.2904Z" stroke="url(#paint10_linear_645_3771)" stroke-opacity="0.3" stroke-width="2"/>
</g>
<defs>
<linearGradient id="paint0_linear_645_3771" x1="673.156" y1="126.398" x2="673.156" y2="211.219" gradientUnits="userSpaceOnUse">
<stop stop-color="#C7F800"/>
<stop offset="1" stop-color="#078513"/>
</linearGradient>
<linearGradient id="paint1_linear_645_3771" x1="714.754" y1="0" x2="714.754" y2="174.629" gradientUnits="userSpaceOnUse">
<stop stop-color="#C7F800"/>
<stop offset="1" stop-color="#078513"/>
</linearGradient>
<linearGradient id="paint2_linear_645_3771" x1="624.812" y1="103.114" x2="624.812" y2="221.197" gradientUnits="userSpaceOnUse">
<stop stop-color="#FA643F"/>
<stop offset="1" stop-color="#B61F00"/>
</linearGradient>
<linearGradient id="paint3_linear_645_3771" x1="827.271" y1="208.102" x2="692.556" y2="263.012" gradientUnits="userSpaceOnUse">
<stop stop-color="#45B68D"/>
<stop offset="1" stop-color="#45B68D" stop-opacity="0.19"/>
</linearGradient>
<linearGradient id="paint4_linear_645_3771" x1="552.032" y1="22.2214" x2="417.317" y2="77.1313" gradientUnits="userSpaceOnUse">
<stop stop-color="#45B68D"/>
<stop offset="1" stop-color="#45B68D" stop-opacity="0.19"/>
</linearGradient>
<linearGradient id="paint5_linear_645_3771" x1="240.752" y1="265.609" x2="110.97" y2="315.863" gradientUnits="userSpaceOnUse">
<stop stop-color="#E8503A"/>
<stop offset="1" stop-color="#E8503A" stop-opacity="0.19"/>
</linearGradient>
<linearGradient id="paint6_linear_645_3771" x1="929.066" y1="82.0429" x2="248.685" y2="315.649" gradientUnits="userSpaceOnUse">
<stop stop-color="#45B68D"/>
<stop offset="1" stop-color="#45B68D" stop-opacity="0"/>
</linearGradient>
<linearGradient id="paint7_linear_645_3771" x1="378.38" y1="220.278" x2="-32.5458" y2="320.912" gradientUnits="userSpaceOnUse">
<stop stop-color="#E8503A"/>
<stop offset="1" stop-color="#E8503A" stop-opacity="0"/>
</linearGradient>
<linearGradient id="paint8_linear_645_3771" x1="252.229" y1="261.752" x2="443.327" y2="281.909" gradientUnits="userSpaceOnUse">
<stop stop-color="#282A2E"/>
<stop offset="1" stop-color="#1A1B1E"/>
</linearGradient>
<radialGradient id="paint9_radial_645_3771" cx="0" cy="0" r="1" gradientUnits="userSpaceOnUse" gradientTransform="translate(426.112 111.703) rotate(46.8769) scale(310.219 244.142)">
<stop stop-color="#232336" stop-opacity="0.7"/>
<stop offset="0.0001" stop-color="#232336" stop-opacity="0.7"/>
<stop offset="1" stop-color="#232336" stop-opacity="0.1"/>
</radialGradient>
<linearGradient id="paint10_linear_645_3771" x1="411.105" y1="104.372" x2="611.351" y2="226.429" gradientUnits="userSpaceOnUse">
<stop stop-color="white" stop-opacity="0.32"/>
<stop offset="1" stop-color="#BEBEBE" stop-opacity="0.23"/>
</linearGradient>
<clipPath id="clip0_645_3771">
<rect width="800" height="413" fill="white"/>
</clipPath>
</defs>
</svg>
