<svg width="213" height="117" viewBox="0 0 213 117" fill="none" xmlns="http://www.w3.org/2000/svg">
<path d="M101.092 53.7344V56.9983H96.6683V70.459H92.6014V56.9983H88.1777V53.7344H101.092ZM111.647 70.459L108.175 64.1456H107.2V70.459H103.133V53.7344H109.959C111.275 53.7344 112.393 53.9647 113.312 54.4253C114.248 54.8859 114.945 55.5212 115.405 56.3312C115.865 57.1254 116.095 58.0148 116.095 58.9995C116.095 60.1113 115.777 61.104 115.143 61.9776C114.525 62.8511 113.606 63.4705 112.384 63.8358L116.237 70.459H111.647ZM107.2 61.2628H109.721C110.466 61.2628 111.021 61.0802 111.386 60.7149C111.766 60.3495 111.956 59.8334 111.956 59.1663C111.956 58.531 111.766 58.0307 111.386 57.6654C111.021 57.3 110.466 57.1174 109.721 57.1174H107.2V61.2628ZM129.041 67.5048H122.81L121.811 70.459H117.553L123.594 53.7344H128.303L134.344 70.459H130.04L129.041 67.5048ZM127.994 64.36L125.925 58.2372L123.88 64.36H127.994ZM142.438 53.7344C144.198 53.7344 145.736 54.0838 147.052 54.7826C148.368 55.4815 149.383 56.4662 150.096 57.7368C150.825 58.9916 151.19 60.4448 151.19 62.0967C151.19 63.7326 150.825 65.1859 150.096 66.4565C149.383 67.7272 148.36 68.7118 147.028 69.4107C145.712 70.1096 144.182 70.459 142.438 70.459H136.183V53.7344H142.438ZM142.176 66.933C143.714 66.933 144.911 66.5121 145.768 65.6703C146.624 64.8285 147.052 63.6373 147.052 62.0967C147.052 60.5561 146.624 59.3569 145.768 58.4992C144.911 57.6415 143.714 57.2127 142.176 57.2127H140.25V66.933H142.176ZM157.53 56.9983V60.3813H162.976V63.5261H157.53V67.1951H163.69V70.459H153.463V53.7344H163.69V56.9983H157.53ZM176.009 70.459L170.396 63.0735V70.459H166.33V53.7344H170.396V61.0722L175.962 53.7344H180.742L174.273 61.9299L180.98 70.459H176.009ZM186.909 53.7344V63.7405C186.909 64.7412 187.155 65.5115 187.646 66.0515C188.137 66.5915 188.859 66.8615 189.81 66.8615C190.761 66.8615 191.491 66.5915 191.998 66.0515C192.506 65.5115 192.759 64.7412 192.759 63.7405V53.7344H196.826V63.7167C196.826 65.2097 196.509 66.4724 195.875 67.5048C195.241 68.5372 194.385 69.3154 193.306 69.8395C192.244 70.3637 191.055 70.6257 189.739 70.6257C188.422 70.6257 187.242 70.3716 186.195 69.8634C185.164 69.3392 184.348 68.561 183.745 67.5286C183.143 66.4803 182.842 65.2097 182.842 63.7167V53.7344H186.909ZM209.789 61.8823C210.757 62.0887 211.534 62.5732 212.12 63.3355C212.707 64.0821 213 64.9397 213 65.9086C213 67.3062 212.509 68.4181 211.525 69.2439C210.559 70.054 209.203 70.459 207.459 70.459H199.682V53.7344H207.197C208.894 53.7344 210.217 54.1235 211.169 54.9018C212.136 55.68 212.62 56.7362 212.62 58.0704C212.62 59.0551 212.358 59.8731 211.835 60.5243C211.328 61.1755 210.646 61.6282 209.789 61.8823ZM203.748 60.5005H206.412C207.078 60.5005 207.586 60.3575 207.934 60.0716C208.299 59.7699 208.481 59.3331 208.481 58.7613C208.481 58.1895 208.299 57.7527 207.934 57.451C207.586 57.1492 207.078 56.9983 206.412 56.9983H203.748V60.5005ZM206.745 67.1712C207.427 67.1712 207.951 67.0203 208.315 66.7186C208.695 66.4009 208.886 65.9482 208.886 65.3606C208.886 64.773 208.688 64.3123 208.291 63.9788C207.91 63.6452 207.38 63.4785 206.698 63.4785H203.748V67.1712H206.745Z" fill="white"/>
<path d="M48.9292 31.9381C51.0918 30.6873 53.7564 30.6873 55.919 31.9381L74.3533 42.5996C76.5159 43.8503 77.8481 46.1619 77.8481 48.6634V69.9863C77.8481 72.4878 76.5159 74.7994 74.3533 76.05L55.919 86.7115C53.7564 87.9622 51.0918 87.9622 48.9292 86.7115L30.4949 76.05C28.3322 74.7994 27 72.4878 27 69.9863V48.6634C27 46.1619 28.3322 43.8503 30.4949 42.5996L48.9292 31.9381Z" fill="white"/>
<g filter="url(#filter0_d_645_4488)">
<path d="M40.4594 48.3203C40.0907 47.6803 40.3095 46.8621 40.9482 46.4928L50.7431 40.8279C51.3818 40.4585 52.1987 40.6777 52.5675 41.3176C52.9362 41.9575 52.7174 42.7757 52.0786 43.1451L42.2837 48.8099C41.645 49.1793 40.8283 48.9601 40.4594 48.3203Z" fill="black"/>
<path d="M40.939 59.2904C40.5701 58.6505 40.7889 57.8322 41.4278 57.4629L45.0113 55.3905C45.65 55.0209 46.4669 55.2402 46.8356 55.8801C47.2043 56.52 46.9855 57.3383 46.3467 57.7076L42.7633 59.78C42.1246 60.1496 41.3077 59.9303 40.939 59.2904Z" fill="black"/>
<path d="M53.1186 52.0594C52.7498 51.4195 52.9687 50.6012 53.6074 50.2319L59.071 47.0721C59.7097 46.7026 60.5266 46.9218 60.8953 47.5618C61.2641 48.2016 61.0452 49.0199 60.4065 49.3893L54.943 52.549C54.3042 52.9186 53.4875 52.6992 53.1186 52.0594Z" fill="black"/>
<path d="M59.3686 42.2804C59.7375 41.6406 60.5542 41.4214 61.1931 41.7908L64.576 43.7473C65.2146 44.1167 65.4335 44.9349 65.0648 45.5748C64.6959 46.2146 63.8792 46.434 63.2403 46.0645L59.8575 44.108C59.2187 43.7386 58.9998 42.9203 59.3686 42.2804Z" fill="black"/>
<path d="M58.8881 47.5245C59.2568 46.8848 60.0737 46.6655 60.7124 47.0349L64.584 49.2741C65.2227 49.6435 65.4418 50.4618 65.0728 51.1016C64.7041 51.7414 63.8872 51.9607 63.2485 51.5913L59.3769 49.3522C58.7382 48.9826 58.5193 48.1645 58.8881 47.5245Z" fill="black"/>
<path d="M44.5707 72.1408C44.9396 71.501 45.7563 71.2817 46.3952 71.6511L50.5372 74.0467C51.1759 74.4161 51.3948 75.2344 51.026 75.8742C50.6571 76.514 49.8404 76.7333 49.2015 76.3639L45.0597 73.9685C44.4209 73.5989 44.202 72.7808 44.5707 72.1408Z" fill="black"/>
<path d="M40.4594 54.4109C40.0907 53.7711 40.3095 52.9528 40.9482 52.5835L59.6464 41.7693C60.2853 41.3999 61.102 41.6191 61.4709 42.259C61.8396 42.8989 61.6208 43.7171 60.9821 44.0865L42.2837 54.9006C41.645 55.27 40.8283 55.0508 40.4594 54.4109Z" fill="black"/>
<path d="M41.5796 46.3037C42.3258 46.3037 42.9306 46.9096 42.9306 47.6569V53.6557C42.9306 54.4031 42.3258 55.0089 41.5796 55.0089C40.8334 55.0089 40.2285 54.4031 40.2285 53.6557V47.6569C40.2285 46.9096 40.8334 46.3037 41.5796 46.3037Z" fill="black"/>
<path d="M50.6351 52.083C51.3812 52.083 51.9862 52.689 51.9862 53.4364V70.8472C51.9862 71.5945 51.3812 72.2004 50.6351 72.2004C49.889 72.2004 49.2842 71.5945 49.2842 70.8472V53.4364C49.2842 52.689 49.889 52.083 50.6351 52.083Z" fill="black"/>
<path d="M45.7425 55.3027C46.4887 55.3027 47.0936 55.9086 47.0936 56.6561V72.6768C47.0936 73.4243 46.4887 74.0302 45.7425 74.0302C44.9964 74.0302 44.3916 73.4243 44.3916 72.6768V56.6561C44.3916 55.9086 44.9964 55.3027 45.7425 55.3027Z" fill="black"/>
<path d="M55.418 55.083C56.1441 55.083 56.7326 55.6724 56.7326 56.3997V73.2252C56.7326 73.9524 56.1441 74.542 55.418 74.542C54.6921 74.542 54.1035 73.9524 54.1035 73.2252V56.3997C54.1035 55.6724 54.6921 55.083 55.418 55.083Z" fill="black"/>
<path d="M63.9272 43.7441C64.6732 43.7441 65.2781 44.35 65.2781 45.0975V50.4377C65.2781 51.1852 64.6732 51.7911 63.9272 51.7911C63.181 51.7911 62.5762 51.1852 62.5762 50.4377V45.0975C62.5762 44.35 63.181 43.7441 63.9272 43.7441Z" fill="black"/>
<path d="M54.4008 57.0113C54.0321 56.3713 54.2509 55.5532 54.8896 55.1837L58.7098 52.9744C59.3486 52.6049 60.1653 52.8242 60.5343 53.464C60.9031 54.104 60.6842 54.9222 60.0455 55.2915L56.2253 57.501C55.5864 57.8704 54.7697 57.6511 54.4008 57.0113Z" fill="black"/>
</g>
<defs>
<filter id="filter0_d_645_4488" x="0.228516" y="0.648438" width="105.05" height="115.895" filterUnits="userSpaceOnUse" color-interpolation-filters="sRGB">
<feFlood flood-opacity="0" result="BackgroundImageFix"/>
<feColorMatrix in="SourceAlpha" type="matrix" values="0 0 0 0 0 0 0 0 0 0 0 0 0 0 0 0 0 0 127 0" result="hardAlpha"/>
<feOffset/>
<feGaussianBlur stdDeviation="20"/>
<feComposite in2="hardAlpha" operator="out"/>
<feColorMatrix type="matrix" values="0 0 0 0 1 0 0 0 0 1 0 0 0 0 1 0 0 0 0.25 0"/>
<feBlend mode="normal" in2="BackgroundImageFix" result="effect1_dropShadow_645_4488"/>
<feBlend mode="normal" in="SourceGraphic" in2="effect1_dropShadow_645_4488" result="shape"/>
</filter>
</defs>
</svg>
