<svg width="5985" height="1823" viewBox="0 0 5985 1823" fill="none" xmlns="http://www.w3.org/2000/svg">
<path d="M2383.84 731.458V836.472H2241.52V1269.56H2110.67V836.472H1968.34V731.458H2383.84ZM2723.45 1269.56L2611.73 1066.43H2580.36V1269.56H2449.51V731.458H2669.12C2711.47 731.458 2747.43 738.867 2777.01 753.688C2807.12 768.508 2829.55 788.948 2844.35 815.01C2859.15 840.561 2866.54 869.176 2866.54 900.86C2866.54 936.631 2856.33 968.571 2835.93 996.676C2816.04 1024.78 2786.46 1044.71 2747.17 1056.46L2871.13 1269.56H2723.45ZM2580.36 973.68H2661.47C2685.45 973.68 2703.29 967.804 2715.03 956.05C2727.27 944.296 2733.4 927.689 2733.4 906.226C2733.4 885.786 2727.27 869.689 2715.03 857.935C2703.29 846.181 2685.45 840.305 2661.47 840.305H2580.36V973.68ZM3283.07 1174.51H3082.59L3050.45 1269.56H2913.48L3107.84 731.458H3259.35L3453.71 1269.56H3315.21L3283.07 1174.51ZM3249.4 1073.33L3182.83 876.331L3117.02 1073.33H3249.4ZM3714.12 731.458C3770.74 731.458 3820.22 742.7 3862.57 765.186C3904.91 787.671 3937.55 819.352 3960.51 860.234C3983.97 900.604 3995.71 947.362 3995.71 1000.51C3995.71 1053.14 3983.97 1099.9 3960.51 1140.78C3937.55 1181.66 3904.65 1213.35 3861.8 1235.83C3819.45 1258.32 3770.24 1269.56 3714.12 1269.56H3512.87V731.458H3714.12ZM3705.7 1156.11C3755.17 1156.11 3793.7 1142.57 3821.24 1115.49C3848.79 1088.4 3862.57 1050.08 3862.57 1000.51C3862.57 950.941 3848.79 912.358 3821.24 884.763C3793.7 857.168 3755.17 843.371 3705.7 843.371H3643.72V1156.11H3705.7ZM4199.68 836.472V945.319H4374.91V1046.5H4199.68V1164.54H4397.87V1269.56H4068.83V731.458H4397.87V836.472H4199.68ZM4794.24 1269.56L4613.66 1031.94V1269.56H4482.81V731.458H4613.66V967.548L4792.71 731.458H4946.52L4738.38 995.143L4954.17 1269.56H4794.24ZM5144.92 731.458V1053.4C5144.92 1085.59 5152.83 1110.38 5168.64 1127.75C5184.45 1145.13 5207.66 1153.81 5238.27 1153.81C5268.88 1153.81 5292.34 1145.13 5308.67 1127.75C5325 1110.38 5333.16 1085.59 5333.16 1053.4V731.458H5464.01V1052.63C5464.01 1100.67 5453.8 1141.29 5433.4 1174.51C5413 1207.73 5385.45 1232.76 5350.76 1249.63C5316.59 1266.49 5278.33 1274.92 5235.98 1274.92C5193.63 1274.92 5155.63 1266.75 5121.96 1250.39C5088.8 1233.53 5062.54 1208.49 5043.15 1175.28C5023.75 1141.55 5014.07 1100.67 5014.07 1052.63V731.458H5144.92ZM5881.09 993.61C5912.22 1000.25 5937.21 1015.84 5956.08 1040.37C5974.97 1064.39 5984.39 1091.98 5984.39 1123.15C5984.39 1168.12 5968.58 1203.89 5936.95 1230.47C5905.84 1256.53 5862.22 1269.56 5806.1 1269.56H5555.88V731.458H5797.68C5852.27 731.458 5894.86 743.979 5925.47 769.018C5956.6 794.057 5972.15 828.04 5972.15 870.966C5972.15 902.65 5963.73 928.965 5946.89 949.918C5930.59 970.87 5908.63 985.434 5881.09 993.61ZM5686.73 949.151H5772.43C5793.85 949.151 5810.19 944.552 5821.4 935.354C5833.14 925.645 5839 911.592 5839 893.195C5839 874.798 5833.14 860.745 5821.4 851.036C5810.19 841.328 5793.85 836.472 5772.43 836.472H5686.73V949.151ZM5783.14 1163.78C5805.09 1163.78 5821.93 1158.92 5833.65 1149.21C5845.89 1138.99 5852.01 1124.43 5852.01 1105.52C5852.01 1086.62 5845.65 1071.79 5832.88 1061.06C5820.64 1050.33 5803.56 1044.97 5781.61 1044.97H5686.73V1163.78H5783.14Z" fill="#CCFF00"/>
<path d="M705.551 30.1819C775.134 -10.0606 860.863 -10.0606 930.443 30.1819L1523.55 373.206C1593.13 413.448 1635.99 487.82 1635.99 568.305V1254.35C1635.99 1334.83 1593.13 1409.21 1523.55 1449.45L930.443 1792.47C860.863 1832.71 775.134 1832.71 705.551 1792.47L112.446 1449.45C42.8631 1409.21 0 1334.83 0 1254.35V568.305C0 487.82 42.8631 413.448 112.446 373.206L705.551 30.1819Z" fill="#CCFF00"/>
<g filter="url(#filter0_d_1326_1280)">
<path d="M433.043 557.265C421.18 536.674 428.222 510.351 448.77 498.467L763.913 316.205C784.463 304.319 810.745 311.371 822.61 331.959C834.473 352.548 827.434 378.873 806.883 390.759L491.741 573.019C471.191 584.905 444.913 577.851 433.043 557.265Z" fill="black"/>
<path d="M448.507 910.218C436.636 889.632 443.679 863.305 464.234 851.421L579.528 784.743C600.078 772.852 626.36 779.907 638.223 800.498C650.089 821.084 643.046 847.411 622.496 859.295L507.202 925.973C486.652 937.863 460.37 930.809 448.507 910.218Z" fill="black"/>
<path d="M840.359 677.567C828.493 656.981 835.535 630.654 856.086 618.77L1031.87 517.107C1052.42 505.217 1078.7 512.271 1090.57 532.862C1102.43 553.448 1095.39 579.775 1074.84 591.661L899.059 693.322C878.504 705.212 852.229 698.153 840.359 677.567Z" fill="black"/>
<path d="M1041.45 362.939C1053.32 342.353 1079.59 335.298 1100.15 347.184L1208.99 410.133C1229.54 422.019 1236.58 448.344 1224.72 468.932C1212.85 489.518 1186.57 496.577 1166.02 484.687L1057.18 421.738C1036.62 409.852 1029.58 383.527 1041.45 362.939Z" fill="black"/>
<path d="M1025.99 531.663C1037.85 511.08 1064.13 504.025 1084.68 515.909L1209.25 587.955C1229.8 599.838 1236.85 626.166 1224.98 646.752C1213.11 667.338 1186.83 674.392 1166.28 662.506L1041.72 590.468C1021.16 578.577 1014.12 552.254 1025.99 531.663Z" fill="black"/>
<path d="M565.337 1323.67C577.207 1303.08 603.484 1296.03 624.04 1307.92L757.304 1384.99C777.854 1396.88 784.896 1423.2 773.031 1443.79C761.163 1464.37 734.886 1471.43 714.331 1459.54L581.071 1382.47C560.516 1370.58 553.474 1344.26 565.337 1323.67Z" fill="black"/>
<path d="M433.043 753.228C421.18 732.642 428.222 706.314 448.77 694.43L1050.37 346.493C1070.92 334.607 1097.2 341.662 1109.07 362.248C1120.94 382.836 1113.89 409.161 1093.34 421.047L491.741 768.982C471.191 780.868 444.913 773.814 433.043 753.228Z" fill="black"/>
<path d="M469.102 492.384C493.11 492.384 512.57 511.878 512.57 535.923V728.929C512.57 752.974 493.11 772.467 469.102 772.467C445.094 772.467 425.631 752.974 425.631 728.929V535.923C425.631 511.878 445.094 492.384 469.102 492.384Z" fill="black"/>
<path d="M760.468 678.328C784.477 678.328 803.939 697.827 803.939 721.871V1282.05C803.939 1306.09 784.477 1325.59 760.468 1325.59C736.465 1325.59 717.005 1306.09 717.005 1282.05V721.871C717.005 697.827 736.465 678.328 760.468 678.328Z" fill="black"/>
<path d="M603.038 781.92C627.046 781.92 646.509 801.414 646.509 825.463V1340.91C646.509 1364.96 627.046 1384.46 603.038 1384.46C579.035 1384.46 559.575 1364.96 559.575 1340.91V825.463C559.575 801.414 579.035 781.92 603.038 781.92Z" fill="black"/>
<path d="M914.341 774.851C937.702 774.851 956.635 793.815 956.635 817.213V1358.56C956.635 1381.96 937.702 1400.93 914.341 1400.93C890.984 1400.93 872.047 1381.96 872.047 1358.56V817.213C872.047 793.815 890.984 774.851 914.341 774.851Z" fill="black"/>
<path d="M1188.12 410.032C1212.12 410.032 1231.58 429.526 1231.58 453.576V625.392C1231.58 649.442 1212.12 668.937 1188.12 668.937C1164.11 668.937 1144.65 649.442 1144.65 625.392V453.576C1144.65 429.526 1164.11 410.032 1188.12 410.032Z" fill="black"/>
<path d="M881.596 836.892C869.733 816.301 876.773 789.978 897.323 778.09L1020.24 707.007C1040.79 695.121 1067.07 702.176 1078.94 722.761C1090.8 743.352 1083.76 769.675 1063.21 781.559L940.299 852.647C919.744 864.532 893.466 857.478 881.596 836.892Z" fill="black"/>
</g>
<defs>
<filter id="filter0_d_1326_1280" x="385.631" y="270.431" width="885.948" height="1234.89" filterUnits="userSpaceOnUse" color-interpolation-filters="sRGB">
<feFlood flood-opacity="0" result="BackgroundImageFix"/>
<feColorMatrix in="SourceAlpha" type="matrix" values="0 0 0 0 0 0 0 0 0 0 0 0 0 0 0 0 0 0 127 0" result="hardAlpha"/>
<feOffset/>
<feGaussianBlur stdDeviation="20"/>
<feComposite in2="hardAlpha" operator="out"/>
<feColorMatrix type="matrix" values="0 0 0 0 1 0 0 0 0 1 0 0 0 0 1 0 0 0 0.25 0"/>
<feBlend mode="normal" in2="BackgroundImageFix" result="effect1_dropShadow_1326_1280"/>
<feBlend mode="normal" in="SourceGraphic" in2="effect1_dropShadow_1326_1280" result="shape"/>
</filter>
</defs>
</svg>
