<svg width="102" height="30" viewBox="0 0 102 30" fill="none" xmlns="http://www.w3.org/2000/svg">
<path opacity="0.4" fill-rule="evenodd" clip-rule="evenodd" d="M1 27.1875L6.91643 23.3742C7.60126 22.9328 8.51842 23.2601 8.76901 24.0354V24.0354C8.99156 24.7239 9.75368 25.0766 10.4226 24.8007L11.8874 24.1964C12.9818 23.745 14.2427 24.0576 14.9995 24.9681L16.1577 26.3616C17.7727 28.3047 20.7164 28.4174 22.4754 26.6035V26.6035C23.2756 25.7783 24.3761 25.3125 25.5256 25.3125H27.3769C29.6013 25.3125 31.6388 24.0682 32.6547 22.0893L37.9597 11.7556C38.4113 10.8759 39.7007 10.9804 40.0049 11.9213V11.9213C40.3301 12.9275 41.7444 12.953 42.1057 11.9592L44.8701 4.35717C45.5388 2.5183 47.9989 2.18985 49.1266 3.78887V3.78887C49.707 4.61185 50.736 4.98994 51.7111 4.73853L52.4586 4.54583C54.2132 4.09346 56.0262 5.03903 56.6594 6.73681L58.6591 12.0984C59.2633 13.7183 61.4395 13.9905 62.424 12.5691V12.5691C63.384 11.183 65.4953 11.3997 66.1538 12.9519L67.2112 15.4442C68.4951 18.4706 72.86 18.2369 73.8134 15.0906L75.1421 10.706C75.3231 10.1087 76.0791 9.92535 76.5136 10.3734V10.3734C76.9191 10.7915 77.6191 10.6647 77.852 10.1309L78.6281 8.35236C79.4693 6.42461 82.3015 6.76612 82.6604 8.83857L83.2305 12.1309C83.4372 13.3245 84.911 13.7793 85.7543 12.9096V12.9096C86.5064 12.134 87.8089 12.3981 88.1996 13.4053L88.3764 13.861C88.9742 15.4021 91.161 15.3845 91.7338 13.8338L92.8112 10.9174C93.2345 9.77153 94.7113 9.46423 95.5566 10.3462V10.3462C95.8325 10.6341 96.2032 10.8126 96.6004 10.8488L101 11.25V30H1V27.1875Z" fill="url(#paint0_linear_1295_974)"/>
<path d="M1 27.1875L6.91643 23.3742C7.60126 22.9328 8.51842 23.2601 8.76901 24.0354V24.0354C8.99156 24.7239 9.75368 25.0766 10.4226 24.8007L11.8874 24.1964C12.9818 23.745 14.2427 24.0576 14.9995 24.9681L16.1577 26.3616C17.7727 28.3047 20.7164 28.4174 22.4754 26.6035V26.6035C23.2756 25.7783 24.3761 25.3125 25.5256 25.3125H27.3769C29.6013 25.3125 31.6388 24.0682 32.6547 22.0893L37.9597 11.7556C38.4113 10.8759 39.7007 10.9804 40.0049 11.9213V11.9213C40.3301 12.9275 41.7444 12.953 42.1057 11.9592L44.8701 4.35717C45.5388 2.5183 47.9989 2.18985 49.1266 3.78887V3.78887C49.707 4.61185 50.736 4.98994 51.7111 4.73853L52.4586 4.54583C54.2132 4.09346 56.0262 5.03903 56.6594 6.73681L58.6591 12.0984C59.2633 13.7183 61.4395 13.9905 62.424 12.5691V12.5691C63.384 11.183 65.4953 11.3997 66.1538 12.9519L67.2112 15.4442C68.4951 18.4706 72.86 18.2369 73.8134 15.0906L75.1421 10.706C75.3231 10.1087 76.0791 9.92535 76.5136 10.3734V10.3734C76.9191 10.7915 77.6191 10.6647 77.852 10.1309L78.6281 8.35236C79.4693 6.42461 82.3015 6.76612 82.6604 8.83857L83.2305 12.1309C83.4372 13.3245 84.911 13.7793 85.7543 12.9096V12.9096C86.5064 12.134 87.8089 12.3981 88.1996 13.4053L88.3764 13.861C88.9742 15.4021 91.161 15.3845 91.7338 13.8338L92.8112 10.9174C93.2345 9.77153 94.7113 9.46423 95.5566 10.3462V10.3462C95.8325 10.6341 96.2032 10.8126 96.6004 10.8488L101 11.25" stroke="#CD3D42" stroke-linecap="round" stroke-linejoin="round"/>
<defs>
<linearGradient id="paint0_linear_1295_974" x1="1.21281" y1="0" x2="1.21281" y2="29.8723" gradientUnits="userSpaceOnUse">
<stop stop-color="#CD3D42"/>
<stop offset="1" stop-color="#CD3D42" stop-opacity="0.01"/>
</linearGradient>
</defs>
</svg>
