<svg width="102" height="32" viewBox="0 0 102 32" fill="none" xmlns="http://www.w3.org/2000/svg">
<path opacity="0.4" fill-rule="evenodd" clip-rule="evenodd" d="M1 31C1 31 11.0159 25.375 14.75 25.375C18.4841 25.375 22.3603 28.1317 26 25.3796C29.6397 22.6275 30.3912 19.7395 33.5 21.625C36.6088 23.5105 39.5851 23.5105 41 21.625C42.4149 19.7395 41.0372 18.8125 46 18.8125C50.9628 18.8125 50.5215 13.5116 52.25 10.375C53.9785 7.23842 56.5262 3.97844 61 6.625C65.4738 9.27156 68.5213 7.52644 69.75 5.6875C70.9787 3.84856 72.0027 2.875 74.75 2.875C77.4973 2.875 77.472 4.75 79.75 4.75C82.028 4.75 82.7494 6.625 86 6.625C89.2506 6.625 91.0932 1.93986 93.5 1.93986C95.9068 1.93986 101 1 101 1V31H1Z" fill="url(#paint0_linear_1295_1056)"/>
<path d="M1 31C1 31 11.0159 25.375 14.75 25.375C18.4841 25.375 22.3603 28.1317 26 25.3796C29.6397 22.6275 30.3912 19.7395 33.5 21.625C36.6088 23.5105 39.5851 23.5105 41 21.625C42.4149 19.7395 41.0372 18.8125 46 18.8125C50.9628 18.8125 50.5215 13.5116 52.25 10.375C53.9785 7.23842 56.5262 3.97844 61 6.625C65.4738 9.27156 68.5213 7.52644 69.75 5.6875C70.9787 3.84856 72.0027 2.875 74.75 2.875C77.4973 2.875 77.472 4.75 79.75 4.75C82.028 4.75 82.7494 6.625 86 6.625C89.2506 6.625 91.0932 1.93986 93.5 1.93986C95.9068 1.93986 101 1 101 1" stroke="#42A93C" stroke-linecap="round" stroke-linejoin="round"/>
<defs>
<linearGradient id="paint0_linear_1295_1056" x1="1.21281" y1="1" x2="1.21281" y2="30.8723" gradientUnits="userSpaceOnUse">
<stop stop-color="#42A93C"/>
<stop offset="1" stop-color="#42A93C" stop-opacity="0.01"/>
</linearGradient>
</defs>
</svg>
