<svg width="102" height="32" viewBox="0 0 102 32" fill="none" xmlns="http://www.w3.org/2000/svg">
<path opacity="0.4" fill-rule="evenodd" clip-rule="evenodd" d="M1 26.3125C1 26.3125 4.57194 25.2175 14.75 21.625C24.9281 18.0325 26 31 26 31C26 31 30.3912 12.2395 33.5 14.125C36.6088 16.0105 39.5851 16.0105 41 14.125C42.4149 12.2395 41.0372 18.8125 46 18.8125C50.9628 18.8125 50.5215 13.5116 52.25 10.375C53.9785 7.23842 56.5262 11.4784 61 14.125C65.4738 16.7716 68.5213 30.0264 69.75 28.1875C70.9787 26.3486 72.0027 17.875 74.75 17.875C77.4973 17.875 77.472 4.75 79.75 4.75C82.028 4.75 82.7494 17.4413 86 17.4413C89.2506 17.4413 91.0932 1.93986 93.5 1.93986C95.9068 1.93986 101 1 101 1V31H1V26.3125Z" fill="url(#paint0_linear_1295_1060)"/>
<path d="M1 26.3125C1 26.3125 4.57194 25.2175 14.75 21.625C24.9281 18.0325 26 31 26 31C26 31 30.3912 12.2395 33.5 14.125C36.6088 16.0105 39.5851 16.0105 41 14.125C42.4149 12.2395 41.0372 18.8125 46 18.8125C50.9628 18.8125 50.5215 13.5116 52.25 10.375C53.9785 7.23842 56.5262 11.4784 61 14.125C65.4738 16.7716 68.5213 30.0264 69.75 28.1875C70.9787 26.3486 72.0027 17.875 74.75 17.875C77.4973 17.875 77.472 4.75 79.75 4.75C82.028 4.75 82.7494 17.4413 86 17.4413C89.2506 17.4413 91.0932 1.93986 93.5 1.93986C95.9068 1.93986 101 1 101 1" stroke="#42A93C" stroke-linecap="round" stroke-linejoin="round"/>
<defs>
<linearGradient id="paint0_linear_1295_1060" x1="1.21281" y1="1" x2="1.21281" y2="30.8723" gradientUnits="userSpaceOnUse">
<stop stop-color="#42A93C"/>
<stop offset="1" stop-color="#42A93C" stop-opacity="0.01"/>
</linearGradient>
</defs>
</svg>
