<svg width="903" height="275" viewBox="0 0 903 275" fill="none" xmlns="http://www.w3.org/2000/svg">
<path d="M359.672 110.362V126.207H338.198V191.55H318.456V126.207H296.981V110.362H359.672ZM410.912 191.55L394.055 160.902H389.322V191.55H369.579V110.362H402.714C409.104 110.362 414.53 111.48 418.993 113.716C423.536 115.952 426.92 119.036 429.153 122.968C431.386 126.824 432.501 131.141 432.501 135.922C432.501 141.319 430.961 146.138 427.883 150.378C424.881 154.619 420.418 157.625 414.491 159.399L433.194 191.55H410.912ZM389.322 146.909H401.56C405.179 146.909 407.87 146.022 409.642 144.248C411.489 142.475 412.412 139.969 412.412 136.731C412.412 133.647 411.489 131.218 409.642 129.445C407.87 127.672 405.179 126.785 401.56 126.785H389.322V146.909ZM495.347 177.209H465.098L460.249 191.55H439.583L468.908 110.362H491.768L521.093 191.55H500.196L495.347 177.209ZM490.267 161.943L480.223 132.221L470.294 161.943H490.267ZM560.383 110.362C568.926 110.362 576.391 112.058 582.781 115.451C589.17 118.844 594.095 123.624 597.559 129.792C601.098 135.883 602.869 142.938 602.869 150.956C602.869 158.898 601.098 165.952 597.559 172.121C594.095 178.289 589.131 183.069 582.665 186.462C576.276 189.854 568.851 191.55 560.383 191.55H530.019V110.362H560.383ZM559.113 174.434C566.578 174.434 572.39 172.391 576.546 168.304C580.703 164.218 582.781 158.435 582.781 150.956C582.781 143.478 580.703 137.656 576.546 133.493C572.39 129.329 566.578 127.248 559.113 127.248H549.761V174.434H559.113ZM633.645 126.207V142.629H660.083V157.895H633.645V175.706H663.547V191.55H613.902V110.362H663.547V126.207H633.645ZM723.351 191.55L696.105 155.698V191.55H676.362V110.362H696.105V145.983L723.121 110.362H746.327L714.923 150.147L747.481 191.55H723.351ZM776.261 110.362V158.936C776.261 163.794 777.455 167.533 779.84 170.155C782.225 172.776 785.728 174.087 790.346 174.087C794.965 174.087 798.504 172.776 800.968 170.155C803.432 167.533 804.663 163.794 804.663 158.936V110.362H824.405V158.821C824.405 166.068 822.864 172.198 819.787 177.209C816.709 182.221 812.553 185.999 807.318 188.543C802.162 191.088 796.39 192.36 790 192.36C783.61 192.36 777.878 191.126 772.798 188.659C767.793 186.115 763.832 182.337 760.906 177.325C757.98 172.236 756.519 166.068 756.519 158.821V110.362H776.261ZM887.334 149.915C892.031 150.918 895.802 153.269 898.648 156.97C901.498 160.594 902.92 164.758 902.92 169.461C902.92 176.246 900.535 181.643 895.762 185.652C891.068 189.584 884.487 191.55 876.019 191.55H838.266V110.362H874.749C882.986 110.362 889.412 112.251 894.03 116.029C898.728 119.807 901.073 124.935 901.073 131.411C901.073 136.191 899.803 140.162 897.263 143.323C894.802 146.485 891.49 148.682 887.334 149.915ZM858.009 143.208H870.939C874.172 143.208 876.636 142.514 878.328 141.126C880.1 139.661 880.984 137.541 880.984 134.765C880.984 131.989 880.1 129.869 878.328 128.404C876.636 126.939 874.172 126.207 870.939 126.207H858.009V143.208ZM872.556 175.59C875.868 175.59 878.408 174.858 880.176 173.393C882.023 171.851 882.947 169.653 882.947 166.801C882.947 163.948 881.987 161.712 880.06 160.093C878.213 158.474 875.637 157.664 872.325 157.664H858.009V175.59H872.556Z" fill="#CCFF00"/>
<path d="M106.453 4.55382C116.952 -1.51794 129.886 -1.51794 140.385 4.55382L229.872 56.309C240.371 62.3808 246.838 73.602 246.838 85.7455V189.255C246.838 201.399 240.371 212.62 229.872 218.691L140.385 270.446C129.886 276.518 116.952 276.518 106.453 270.446L16.9658 218.691C6.46715 212.62 0 201.399 0 189.255V85.7455C0 73.602 6.46715 62.3808 16.9658 56.309L106.453 4.55382Z" fill="#CCFF00"/>
<g filter="url(#filter0_d_997_977)">
<path d="M65.3401 84.079C63.5502 80.9723 64.6127 77.0007 67.713 75.2078L115.261 47.7081C118.362 45.9148 122.327 46.9788 124.118 50.0851C125.908 53.1915 124.845 57.1634 121.745 58.9568L74.1964 86.456C71.0958 88.2494 67.131 87.185 65.3401 84.079Z" fill="#1A1B1E"/>
<path d="M67.6679 137.333C65.877 134.227 66.9395 130.255 70.0409 128.462L87.4363 118.402C90.5369 116.608 94.5024 117.672 96.2923 120.779C98.0825 123.885 97.02 127.857 93.9193 129.65L76.5239 139.71C73.4233 141.505 69.4578 140.44 67.6679 137.333Z" fill="#1A1B1E"/>
<path d="M126.791 102.229C125.001 99.1231 126.064 95.1508 129.164 93.3578L155.687 78.0191C158.787 76.225 162.753 77.2894 164.543 80.3961C166.333 83.5021 165.27 87.4744 162.17 89.2677L135.648 104.606C132.547 106.4 128.582 105.335 126.791 102.229Z" fill="#1A1B1E"/>
<path d="M157.133 54.7589C158.924 51.6529 162.889 50.5885 165.99 52.3819L182.412 61.8795C185.512 63.6728 186.575 67.6447 184.785 70.7511C182.994 73.8571 179.029 74.9222 175.928 73.1281L159.507 63.6305C156.405 61.8372 155.343 57.8652 157.133 54.7589Z" fill="#1A1B1E"/>
<path d="M154.8 80.2167C156.59 77.111 160.556 76.0467 163.656 77.8396L182.45 88.7099C185.551 90.5029 186.614 94.4752 184.823 97.5812C183.034 100.687 179.068 101.752 175.967 99.9582L157.173 89.089C154.073 87.2949 153.01 83.3234 154.8 80.2167Z" fill="#1A1B1E"/>
<path d="M85.2971 199.713C87.088 196.607 91.0527 195.543 94.1541 197.336L114.261 208.965C117.362 210.758 118.424 214.73 116.634 217.836C114.843 220.942 110.878 222.007 107.777 220.213L87.6711 208.585C84.5697 206.791 83.5072 202.82 85.2971 199.713Z" fill="#1A1B1E"/>
<path d="M65.3401 113.645C63.5502 110.539 64.6127 106.567 67.713 104.774L158.482 52.2774C161.583 50.484 165.548 51.5484 167.339 54.6544C169.129 57.7607 168.066 61.7327 164.966 63.526L74.1964 116.022C71.0958 117.815 67.131 116.751 65.3401 113.645Z" fill="#1A1B1E"/>
<path d="M70.7775 74.292C74.3999 74.292 77.336 77.2332 77.336 80.8611V109.982C77.336 113.61 74.3999 116.551 70.7775 116.551C67.1552 116.551 64.2188 113.61 64.2188 109.982V80.8611C64.2188 77.2332 67.1552 74.292 70.7775 74.292Z" fill="#1A1B1E"/>
<path d="M114.737 102.346C118.36 102.346 121.296 105.288 121.296 108.915V193.435C121.296 197.063 118.36 200.004 114.737 200.004C111.116 200.004 108.18 197.063 108.18 193.435V108.915C108.18 105.288 111.116 102.346 114.737 102.346Z" fill="#1A1B1E"/>
<path d="M90.9854 117.976C94.6078 117.976 97.5442 120.917 97.5442 124.545V202.316C97.5442 205.945 94.6078 208.886 90.9854 208.886C87.3638 208.886 84.4277 205.945 84.4277 202.316V124.545C84.4277 120.917 87.3638 117.976 90.9854 117.976Z" fill="#1A1B1E"/>
<path d="M137.955 116.907C141.479 116.907 144.336 119.769 144.336 123.299V204.977C144.336 208.507 141.479 211.369 137.955 211.369C134.43 211.369 131.573 208.507 131.573 204.977V123.299C131.573 119.769 134.43 116.907 137.955 116.907Z" fill="#1A1B1E"/>
<path d="M179.262 61.8643C182.883 61.8643 185.819 64.8054 185.819 68.434V94.3576C185.819 97.9862 182.883 100.928 179.262 100.928C175.639 100.928 172.703 97.9862 172.703 94.3576V68.434C172.703 64.8054 175.639 61.8643 179.262 61.8643Z" fill="#1A1B1E"/>
<path d="M133.017 126.269C131.227 123.162 132.289 119.191 135.39 117.397L153.935 106.672C157.036 104.879 161 105.943 162.791 109.049C164.582 112.156 163.519 116.127 160.419 117.92L141.874 128.646C138.773 130.439 134.808 129.375 133.017 126.269Z" fill="#1A1B1E"/>
</g>
<defs>
<filter id="filter0_d_997_977" x="24.2188" y="6.83691" width="201.601" height="254.248" filterUnits="userSpaceOnUse" color-interpolation-filters="sRGB">
<feFlood flood-opacity="0" result="BackgroundImageFix"/>
<feColorMatrix in="SourceAlpha" type="matrix" values="0 0 0 0 0 0 0 0 0 0 0 0 0 0 0 0 0 0 127 0" result="hardAlpha"/>
<feOffset/>
<feGaussianBlur stdDeviation="20"/>
<feComposite in2="hardAlpha" operator="out"/>
<feColorMatrix type="matrix" values="0 0 0 0 1 0 0 0 0 1 0 0 0 0 1 0 0 0 0.25 0"/>
<feBlend mode="normal" in2="BackgroundImageFix" result="effect1_dropShadow_997_977"/>
<feBlend mode="normal" in="SourceGraphic" in2="effect1_dropShadow_997_977" result="shape"/>
</filter>
</defs>
</svg>
