<svg width="1389" height="726" viewBox="0 0 1389 726" fill="none" xmlns="http://www.w3.org/2000/svg">
<g filter="url(#filter0_d_1096_962)">
<g clip-path="url(#clip0_1096_962)">
<rect x="4" width="1380.43" height="718" rx="28" fill="#1A1B1E"/>
<rect x="4" width="1920" height="1080" fill="url(#paint0_radial_1096_962)"/>
<path d="M1036.08 150.253V154.309H1030.58V171.037H1025.52V154.309H1020.03V150.253H1036.08ZM1049.19 171.037L1044.88 163.191H1043.67V171.037H1038.61V150.253H1047.1C1048.73 150.253 1050.12 150.539 1051.26 151.112C1052.43 151.684 1053.29 152.473 1053.86 153.48C1054.44 154.467 1054.72 155.572 1054.72 156.796C1054.72 158.178 1054.33 159.412 1053.54 160.497C1052.77 161.583 1051.63 162.352 1050.11 162.806L1054.9 171.037H1049.19ZM1043.67 159.609H1046.8C1047.73 159.609 1048.42 159.382 1048.87 158.928C1049.34 158.474 1049.58 157.832 1049.58 157.003C1049.58 156.214 1049.34 155.592 1048.87 155.138C1048.42 154.684 1047.73 154.457 1046.8 154.457H1043.67V159.609ZM1070.81 167.366H1063.07L1061.82 171.037H1056.53L1064.04 150.253H1069.89L1077.4 171.037H1072.05L1070.81 167.366ZM1069.51 163.458L1066.94 155.849L1064.4 163.458H1069.51ZM1087.46 150.253C1089.65 150.253 1091.56 150.687 1093.19 151.556C1094.83 152.424 1096.09 153.648 1096.98 155.227C1097.88 156.786 1098.34 158.592 1098.34 160.645C1098.34 162.678 1097.88 164.484 1096.98 166.063C1096.09 167.642 1094.82 168.866 1093.16 169.735C1091.53 170.603 1089.63 171.037 1087.46 171.037H1079.69V150.253H1087.46ZM1087.13 166.655C1089.04 166.655 1090.53 166.132 1091.6 165.086C1092.66 164.04 1093.19 162.56 1093.19 160.645C1093.19 158.731 1092.66 157.24 1091.6 156.174C1090.53 155.109 1089.04 154.576 1087.13 154.576H1084.74V166.655H1087.13ZM1106.21 154.309V158.513H1112.98V162.422H1106.21V166.981H1113.87V171.037H1101.16V150.253H1113.87V154.309H1106.21ZM1129.18 171.037L1122.2 161.859V171.037H1117.15V150.253H1122.2V159.372L1129.12 150.253H1135.06L1127.02 160.438L1135.36 171.037H1129.18ZM1142.72 150.253V162.688C1142.72 163.932 1143.03 164.889 1143.64 165.56C1144.25 166.231 1145.15 166.567 1146.33 166.567C1147.51 166.567 1148.42 166.231 1149.05 165.56C1149.68 164.889 1150 163.932 1150 162.688V150.253H1155.05V162.658C1155.05 164.514 1154.66 166.083 1153.87 167.366C1153.08 168.649 1152.02 169.616 1150.68 170.268C1149.36 170.919 1147.88 171.245 1146.24 171.245C1144.61 171.245 1143.14 170.929 1141.84 170.297C1140.56 169.646 1139.54 168.679 1138.79 167.396C1138.04 166.093 1137.67 164.514 1137.67 162.658V150.253H1142.72ZM1171.16 160.379C1172.36 160.635 1173.33 161.237 1174.06 162.185C1174.79 163.112 1175.15 164.178 1175.15 165.382C1175.15 167.119 1174.54 168.501 1173.32 169.527C1172.12 170.534 1170.43 171.037 1168.26 171.037H1158.6V150.253H1167.94C1170.05 150.253 1171.69 150.737 1172.87 151.704C1174.08 152.671 1174.68 153.983 1174.68 155.641C1174.68 156.865 1174.35 157.882 1173.7 158.691C1173.07 159.5 1172.22 160.063 1171.16 160.379ZM1163.65 158.661H1166.96C1167.79 158.661 1168.42 158.484 1168.85 158.129C1169.31 157.754 1169.53 157.211 1169.53 156.5C1169.53 155.79 1169.31 155.247 1168.85 154.872C1168.42 154.497 1167.79 154.309 1166.96 154.309H1163.65V158.661ZM1167.38 166.952C1168.22 166.952 1168.87 166.764 1169.33 166.389C1169.8 165.994 1170.04 165.432 1170.04 164.701C1170.04 163.971 1169.79 163.399 1169.3 162.984C1168.82 162.57 1168.17 162.362 1167.32 162.362H1163.65V166.952H1167.38Z" fill="#CCFF00"/>
<path d="M971.252 123.166C973.94 121.611 977.251 121.611 979.939 123.166L1002.85 136.415C1005.54 137.97 1007.19 140.842 1007.19 143.951V170.45C1007.19 173.559 1005.54 176.432 1002.85 177.986L979.939 191.235C977.251 192.79 973.94 192.79 971.252 191.235L948.343 177.986C945.656 176.432 944 173.559 944 170.45V143.951C944 140.842 945.656 137.97 948.343 136.415L971.252 123.166Z" fill="#CCFF00"/>
<g filter="url(#filter1_d_1096_962)">
<path d="M960.727 143.523C960.269 142.728 960.541 141.711 961.335 141.252L973.507 134.212C974.301 133.753 975.316 134.026 975.775 134.821C976.233 135.616 975.961 136.633 975.167 137.092L962.995 144.132C962.201 144.591 961.186 144.319 960.727 143.523Z" fill="#1A1B1E"/>
<path d="M961.323 157.157C960.865 156.361 961.137 155.345 961.931 154.886L966.384 152.31C967.178 151.851 968.193 152.123 968.651 152.919C969.11 153.714 968.838 154.731 968.044 155.19L963.59 157.765C962.797 158.224 961.782 157.952 961.323 157.157Z" fill="#1A1B1E"/>
<path d="M976.459 148.17C976.001 147.375 976.273 146.358 977.066 145.899L983.856 141.972C984.65 141.513 985.665 141.785 986.123 142.581C986.582 143.376 986.31 144.393 985.516 144.852L978.726 148.779C977.932 149.238 976.917 148.965 976.459 148.17Z" fill="#1A1B1E"/>
<path d="M984.226 136.017C984.685 135.222 985.7 134.949 986.494 135.409L990.698 137.84C991.492 138.299 991.764 139.316 991.306 140.111C990.847 140.906 989.832 141.179 989.038 140.72L984.834 138.288C984.04 137.829 983.768 136.812 984.226 136.017Z" fill="#1A1B1E"/>
<path d="M983.63 142.535C984.088 141.74 985.103 141.467 985.897 141.926L990.708 144.709C991.502 145.168 991.774 146.185 991.316 146.98C990.858 147.775 989.842 148.048 989.049 147.589L984.237 144.806C983.444 144.347 983.172 143.33 983.63 142.535Z" fill="#1A1B1E"/>
<path d="M965.837 173.126C966.295 172.331 967.31 172.059 968.104 172.518L973.252 175.495C974.045 175.954 974.317 176.971 973.859 177.766C973.401 178.561 972.386 178.834 971.592 178.375L966.445 175.398C965.651 174.939 965.379 173.922 965.837 173.126Z" fill="#1A1B1E"/>
<path d="M960.727 151.093C960.269 150.297 960.541 149.28 961.335 148.821L984.572 135.382C985.366 134.923 986.381 135.196 986.84 135.991C987.298 136.786 987.026 137.803 986.232 138.262L962.995 151.701C962.201 152.16 961.186 151.888 960.727 151.093Z" fill="#1A1B1E"/>
<path d="M962.12 141.018C963.047 141.018 963.798 141.771 963.798 142.699V150.154C963.798 151.083 963.047 151.836 962.12 151.836C961.192 151.836 960.44 151.083 960.44 150.154V142.699C960.44 141.771 961.192 141.018 962.12 141.018Z" fill="#1A1B1E"/>
<path d="M973.373 148.199C974.3 148.199 975.052 148.952 975.052 149.881V171.518C975.052 172.447 974.3 173.2 973.373 173.2C972.446 173.2 971.694 172.447 971.694 171.518V149.881C971.694 148.952 972.446 148.199 973.373 148.199Z" fill="#1A1B1E"/>
<path d="M967.293 152.201C968.22 152.201 968.972 152.954 968.972 153.883V173.793C968.972 174.722 968.22 175.475 967.293 175.475C966.366 175.475 965.614 174.722 965.614 173.793V153.883C965.614 152.954 966.366 152.201 967.293 152.201Z" fill="#1A1B1E"/>
<path d="M979.316 151.928C980.219 151.928 980.95 152.66 980.95 153.564V174.474C980.95 175.378 980.219 176.11 979.316 176.11C978.414 176.11 977.683 175.378 977.683 174.474V153.564C977.683 152.66 978.414 151.928 979.316 151.928Z" fill="#1A1B1E"/>
<path d="M989.892 137.837C990.819 137.837 991.571 138.59 991.571 139.519V146.155C991.571 147.084 990.819 147.837 989.892 147.837C988.965 147.837 988.213 147.084 988.213 146.155V139.519C988.213 138.59 988.965 137.837 989.892 137.837Z" fill="#1A1B1E"/>
<path d="M978.053 154.324C977.594 153.529 977.866 152.512 978.66 152.053L983.408 149.307C984.202 148.848 985.217 149.12 985.675 149.916C986.133 150.711 985.861 151.728 985.068 152.187L980.32 154.932C979.526 155.392 978.511 155.119 978.053 154.324Z" fill="#1A1B1E"/>
</g>
</g>
</g>
<defs>
<filter id="filter0_d_1096_962" x="0" y="0" width="1388.43" height="726" filterUnits="userSpaceOnUse" color-interpolation-filters="sRGB">
<feFlood flood-opacity="0" result="BackgroundImageFix"/>
<feColorMatrix in="SourceAlpha" type="matrix" values="0 0 0 0 0 0 0 0 0 0 0 0 0 0 0 0 0 0 127 0" result="hardAlpha"/>
<feOffset dy="4"/>
<feGaussianBlur stdDeviation="2"/>
<feComposite in2="hardAlpha" operator="out"/>
<feColorMatrix type="matrix" values="0 0 0 0 0 0 0 0 0 0 0 0 0 0 0 0 0 0 0.25 0"/>
<feBlend mode="normal" in2="BackgroundImageFix" result="effect1_dropShadow_1096_962"/>
<feBlend mode="normal" in="SourceGraphic" in2="effect1_dropShadow_1096_962" result="shape"/>
</filter>
<filter id="filter1_d_1096_962" x="920.44" y="93.9893" width="111.13" height="124.608" filterUnits="userSpaceOnUse" color-interpolation-filters="sRGB">
<feFlood flood-opacity="0" result="BackgroundImageFix"/>
<feColorMatrix in="SourceAlpha" type="matrix" values="0 0 0 0 0 0 0 0 0 0 0 0 0 0 0 0 0 0 127 0" result="hardAlpha"/>
<feOffset/>
<feGaussianBlur stdDeviation="20"/>
<feComposite in2="hardAlpha" operator="out"/>
<feColorMatrix type="matrix" values="0 0 0 0 1 0 0 0 0 1 0 0 0 0 1 0 0 0 0.25 0"/>
<feBlend mode="normal" in2="BackgroundImageFix" result="effect1_dropShadow_1096_962"/>
<feBlend mode="normal" in="SourceGraphic" in2="effect1_dropShadow_1096_962" result="shape"/>
</filter>
<radialGradient id="paint0_radial_1096_962" cx="0" cy="0" r="1" gradientUnits="userSpaceOnUse" gradientTransform="translate(41.5 88.5) rotate(31.0909) scale(1467.86 1687.62)">
<stop stop-color="#CCFF00"/>
<stop offset="1" stop-color="#364300" stop-opacity="0"/>
</radialGradient>
<clipPath id="clip0_1096_962">
<rect x="4" width="1380.43" height="718" rx="28" fill="white"/>
</clipPath>
</defs>
</svg>
