<svg width="1724" height="525" viewBox="0 0 1724 525" fill="none" xmlns="http://www.w3.org/2000/svg">
<path d="M686.505 210.649V240.892H645.517V365.613H607.834V240.892H566.847V210.649H686.505ZM784.305 365.613L752.132 307.115H743.097V365.613H705.415V210.649H768.659C780.855 210.649 791.212 212.783 799.731 217.051C808.401 221.319 814.86 227.205 819.123 234.711C823.386 242.069 825.513 250.31 825.513 259.434C825.513 269.736 822.573 278.934 816.699 287.028C810.969 295.121 802.451 300.861 791.137 304.246L826.836 365.613H784.305ZM743.097 280.405H766.456C773.363 280.405 778.5 278.713 781.881 275.328C785.407 271.943 787.17 267.16 787.17 260.98C787.17 255.093 785.407 250.458 781.881 247.073C778.5 243.688 773.363 241.995 766.456 241.995H743.097V280.405ZM945.468 338.241H887.732L878.477 365.613H839.031L895.004 210.649H938.636L994.609 365.613H954.723L945.468 338.241ZM935.771 309.102L916.6 252.37L897.648 309.102H935.771ZM1069.6 210.649C1085.91 210.649 1100.16 213.887 1112.35 220.362C1124.55 226.838 1133.95 235.961 1140.56 247.735C1147.31 259.361 1150.7 272.826 1150.7 288.131C1150.7 303.289 1147.31 316.755 1140.56 328.528C1133.95 340.301 1124.47 349.425 1112.13 355.9C1099.94 362.376 1085.76 365.613 1069.6 365.613H1011.65V210.649H1069.6ZM1067.18 332.943C1081.43 332.943 1092.52 329.043 1100.45 321.243C1108.39 313.443 1112.35 302.406 1112.35 288.131C1112.35 273.857 1108.39 262.746 1100.45 254.799C1092.52 246.852 1081.43 242.878 1067.18 242.878H1049.33V332.943H1067.18ZM1209.44 240.892V272.238H1259.9V301.376H1209.44V335.371H1266.51V365.613H1171.75V210.649H1266.51V240.892H1209.44ZM1380.66 365.613L1328.65 297.182V365.613H1290.97V210.649H1328.65V278.639L1380.22 210.649H1424.51L1364.57 286.586L1426.72 365.613H1380.66ZM1481.65 210.649V303.363C1481.65 312.634 1483.93 319.772 1488.48 324.775C1493.03 329.779 1499.72 332.281 1508.53 332.281C1517.35 332.281 1524.1 329.779 1528.81 324.775C1533.51 319.772 1535.86 312.634 1535.86 303.363V210.649H1573.54V303.142C1573.54 316.975 1570.6 328.675 1564.73 338.241C1558.85 347.807 1550.92 355.017 1540.93 359.874C1531.09 364.73 1520.07 367.158 1507.87 367.158C1495.68 367.158 1484.73 364.804 1475.04 360.095C1465.49 355.238 1457.93 348.027 1452.34 338.461C1446.76 328.749 1443.97 316.975 1443.97 303.142V210.649H1481.65ZM1693.65 286.145C1702.62 288.058 1709.82 292.546 1715.25 299.61C1720.69 306.527 1723.4 314.474 1723.4 323.451C1723.4 336.401 1718.85 346.703 1709.74 354.355C1700.78 361.861 1688.22 365.613 1672.06 365.613H1600V210.649H1669.63C1685.36 210.649 1697.62 214.255 1706.43 221.466C1715.4 228.677 1719.88 238.463 1719.88 250.825C1719.88 259.95 1717.45 267.528 1712.61 273.562C1707.91 279.596 1701.59 283.79 1693.65 286.145ZM1637.68 273.341H1662.36C1668.53 273.341 1673.24 272.017 1676.47 269.368C1679.85 266.572 1681.53 262.525 1681.53 257.227C1681.53 251.929 1679.85 247.882 1676.47 245.086C1673.24 242.29 1668.53 240.892 1662.36 240.892H1637.68V273.341ZM1665.45 335.15C1671.77 335.15 1676.62 333.752 1679.99 330.956C1683.52 328.013 1685.28 323.818 1685.28 318.374C1685.28 312.929 1683.45 308.661 1679.77 305.57C1676.24 302.48 1671.33 300.935 1665.01 300.935H1637.68V335.15H1665.45Z" fill="#CCFF00"/>
<path d="M203.187 8.69188C223.226 -2.89729 247.914 -2.89729 267.952 8.69188L438.758 107.477C458.796 119.066 471.14 140.484 471.14 163.663V361.232C471.14 384.41 458.796 405.828 438.758 417.417L267.952 516.201C247.914 527.79 223.226 527.79 203.187 516.201L32.3826 417.417C12.3439 405.828 0 384.41 0 361.232V163.663C0 140.484 12.3439 119.066 32.3826 107.477L203.187 8.69188Z" fill="#CCFF00"/>
<g filter="url(#filter0_d_994_2007)">
<path d="M124.718 160.48C121.302 154.55 123.33 146.969 129.247 143.547L220.003 91.0584C225.921 87.6354 233.49 89.6663 236.907 95.5954C240.323 101.525 238.296 109.106 232.378 112.529L141.622 165.017C135.704 168.44 128.136 166.408 124.718 160.48Z" fill="#1A1B1E"/>
<path d="M129.158 262.122C125.74 256.193 127.768 248.611 133.687 245.189L166.89 225.987C172.808 222.563 180.377 224.594 183.794 230.524C187.211 236.452 185.183 244.034 179.264 247.456L146.062 266.659C140.143 270.083 132.575 268.051 129.158 262.122Z" fill="#1A1B1E"/>
<path d="M242.005 195.126C238.588 189.197 240.616 181.616 246.534 178.193L297.158 148.916C303.076 145.492 310.645 147.523 314.061 153.453C317.478 159.382 315.45 166.963 309.532 170.386L258.91 199.663C252.99 203.087 245.423 201.054 242.005 195.126Z" fill="#1A1B1E"/>
<path d="M299.917 104.515C303.335 98.5868 310.903 96.5552 316.822 99.9781L348.167 118.106C354.084 121.529 356.113 129.11 352.696 135.04C349.278 140.968 341.71 143.001 335.791 139.577L304.447 121.448C298.528 118.026 296.5 110.444 299.917 104.515Z" fill="#1A1B1E"/>
<path d="M295.469 153.104C298.886 147.176 306.455 145.145 312.373 148.567L348.245 169.315C354.164 172.737 356.193 180.319 352.775 186.248C349.358 192.176 341.789 194.208 335.871 190.785L299.999 170.039C294.08 166.614 292.052 159.034 295.469 153.104Z" fill="#1A1B1E"/>
<path d="M162.809 381.191C166.228 375.263 173.795 373.231 179.715 376.654L218.093 398.851C224.011 402.273 226.039 409.855 222.622 415.784C219.204 421.712 211.637 423.744 205.717 420.321L167.34 398.126C161.421 394.702 159.393 387.121 162.809 381.191Z" fill="#1A1B1E"/>
<path d="M124.718 216.915C121.302 210.987 123.33 203.405 129.247 199.983L302.498 99.7823C308.417 96.3594 315.985 98.391 319.403 104.319C322.82 110.248 320.792 117.83 314.874 121.253L141.622 221.452C135.704 224.875 128.136 222.844 124.718 216.915Z" fill="#1A1B1E"/>
<path d="M135.094 141.795C142.008 141.795 147.613 147.409 147.613 154.333V209.916C147.613 216.84 142.008 222.454 135.094 222.454C128.181 222.454 122.576 216.84 122.576 209.916V154.333C122.576 147.409 128.181 141.795 135.094 141.795Z" fill="#1A1B1E"/>
<path d="M219 195.345C225.914 195.345 231.519 200.96 231.519 207.885V369.207C231.519 376.132 225.914 381.745 219 381.745C212.088 381.745 206.483 376.132 206.483 369.207V207.885C206.483 200.96 212.088 195.345 219 195.345Z" fill="#1A1B1E"/>
<path d="M173.667 225.179C180.581 225.179 186.185 230.793 186.185 237.718V386.16C186.185 393.086 180.581 398.7 173.667 398.7C166.754 398.7 161.15 393.086 161.15 386.16V237.718C161.15 230.793 166.754 225.179 173.667 225.179Z" fill="#1A1B1E"/>
<path d="M263.313 223.14C270.04 223.14 275.493 228.601 275.493 235.339V391.239C275.493 397.976 270.04 403.439 263.313 403.439C256.586 403.439 251.133 397.976 251.133 391.239V235.339C251.133 228.601 256.586 223.14 263.313 223.14Z" fill="#1A1B1E"/>
<path d="M342.159 118.079C349.072 118.079 354.676 123.692 354.676 130.618V180.099C354.676 187.025 349.072 192.639 342.159 192.639C335.245 192.639 329.641 187.025 329.641 180.099V130.618C329.641 123.692 335.245 118.079 342.159 118.079Z" fill="#1A1B1E"/>
<path d="M253.89 241.007C250.474 235.077 252.502 227.497 258.42 224.073L293.816 203.602C299.735 200.179 307.303 202.211 310.721 208.139C314.138 214.069 312.11 221.65 306.192 225.072L270.796 245.544C264.876 248.967 257.309 246.935 253.89 241.007Z" fill="#1A1B1E"/>
</g>
<defs>
<filter id="filter0_d_994_2007" x="82.5757" y="49.3955" width="312.1" height="412.588" filterUnits="userSpaceOnUse" color-interpolation-filters="sRGB">
<feFlood flood-opacity="0" result="BackgroundImageFix"/>
<feColorMatrix in="SourceAlpha" type="matrix" values="0 0 0 0 0 0 0 0 0 0 0 0 0 0 0 0 0 0 127 0" result="hardAlpha"/>
<feOffset/>
<feGaussianBlur stdDeviation="20"/>
<feComposite in2="hardAlpha" operator="out"/>
<feColorMatrix type="matrix" values="0 0 0 0 1 0 0 0 0 1 0 0 0 0 1 0 0 0 0.25 0"/>
<feBlend mode="normal" in2="BackgroundImageFix" result="effect1_dropShadow_994_2007"/>
<feBlend mode="normal" in="SourceGraphic" in2="effect1_dropShadow_994_2007" result="shape"/>
</filter>
</defs>
</svg>
