<svg width="275" height="129" viewBox="0 0 275 129" fill="none" xmlns="http://www.w3.org/2000/svg">
<path d="M123.25 57.7607V62.177H117.264V80.3899H111.762V62.177H105.776V57.7607H123.25ZM137.532 80.3899L132.833 71.8476H131.514V80.3899H126.011V57.7607H135.247C137.028 57.7607 138.54 58.0723 139.784 58.6956C141.05 59.3188 141.993 60.1784 142.616 61.2744C143.238 62.3489 143.549 63.5523 143.549 64.8847C143.549 66.389 143.12 67.7322 142.262 68.9142C141.425 70.0961 140.181 70.9342 138.529 71.4285L143.742 80.3899H137.532ZM131.514 67.9471H134.925C135.934 67.9471 136.684 67.7 137.178 67.2057C137.692 66.7114 137.95 66.013 137.95 65.1104C137.95 64.2508 137.692 63.5739 137.178 63.0796C136.684 62.5853 135.934 62.3382 134.925 62.3382H131.514V67.9471ZM161.066 76.3927H152.635L151.283 80.3899H145.523L153.697 57.7607H160.068L168.242 80.3899H162.417L161.066 76.3927ZM159.65 72.1377L156.85 63.8532L154.083 72.1377H159.65ZM179.193 57.7607C181.574 57.7607 183.655 58.2335 185.436 59.1791C187.217 60.1247 188.59 61.457 189.555 63.1763C190.541 64.874 191.035 66.8403 191.035 69.0753C191.035 71.2888 190.541 73.2551 189.555 74.9744C188.59 76.6936 187.206 78.026 185.404 78.9716C183.623 79.9172 181.553 80.3899 179.193 80.3899H170.73V57.7607H179.193ZM178.839 75.6191C180.92 75.6191 182.54 75.0496 183.698 73.9106C184.857 72.7716 185.436 71.1599 185.436 69.0753C185.436 66.9908 184.857 65.3683 183.698 64.2078C182.54 63.0473 180.92 62.4671 178.839 62.4671H176.233V75.6191H178.839ZM199.613 62.177V66.7544H206.982V71.0095H199.613V75.9737H207.948V80.3899H194.11V57.7607H207.948V62.177H199.613ZM224.617 80.3899L217.022 70.397V80.3899H211.52V57.7607H217.022V67.6892L224.552 57.7607H231.02L222.267 68.8497L231.342 80.3899H224.617ZM239.364 57.7607V71.2996C239.364 72.6535 239.697 73.6958 240.361 74.4264C241.026 75.157 242.003 75.5224 243.29 75.5224C244.577 75.5224 245.563 75.157 246.25 74.4264C246.937 73.6958 247.28 72.6535 247.28 71.2996V57.7607H252.783V71.2673C252.783 73.2874 252.353 74.9959 251.496 76.3927C250.638 77.7896 249.479 78.8426 248.02 79.5518C246.583 80.261 244.974 80.6156 243.193 80.6156C241.412 80.6156 239.814 80.2718 238.399 79.584C237.004 78.8749 235.9 77.8219 235.084 76.425C234.268 75.0066 233.861 73.2874 233.861 71.2673V57.7607H239.364ZM270.323 68.7852C271.632 69.0646 272.683 69.72 273.476 70.7516C274.271 71.7616 274.667 72.9221 274.667 74.233C274.667 76.1241 274.002 77.6285 272.672 78.7459C271.363 79.8419 269.529 80.3899 267.169 80.3899H256.646V57.7607H266.815C269.111 57.7607 270.902 58.2873 272.189 59.3403C273.498 60.3933 274.152 61.8224 274.152 63.6276C274.152 64.96 273.798 66.0667 273.09 66.9478C272.404 67.8289 271.481 68.4414 270.323 68.7852ZM262.149 66.9156H265.753C266.654 66.9156 267.341 66.7222 267.813 66.3353C268.306 65.9271 268.553 65.336 268.553 64.5624C268.553 63.7887 268.306 63.1977 267.813 62.7895C267.341 62.3812 266.654 62.177 265.753 62.177H262.149V66.9156ZM266.204 75.9415C267.127 75.9415 267.835 75.7373 268.328 75.329C268.842 74.8991 269.1 74.2867 269.1 73.4916C269.1 72.6965 268.832 72.0732 268.295 71.6219C267.78 71.1706 267.062 70.945 266.139 70.945H262.149V75.9415H266.204Z" fill="#CCFF00"/>
<path d="M52.6712 28.2693C55.5974 26.5769 59.2026 26.5769 62.1288 28.2693L87.0713 42.6948C89.9974 44.3871 91.8 47.5148 91.8 50.8995V79.7503C91.8 83.135 89.9974 86.2626 87.0713 87.9549L62.1288 102.38C59.2026 104.073 55.5974 104.073 52.6712 102.38L27.7288 87.9549C24.8026 86.2626 23 83.135 23 79.7503V50.8995C23 47.5148 24.8026 44.3871 27.7288 42.6948L52.6712 28.2693Z" fill="#CCFF00"/>
<g filter="url(#filter0_d_994_2007)">
<path d="M41.212 50.435C40.7132 49.5691 41.0093 48.4621 41.8734 47.9624L55.1264 40.2975C55.9906 39.7977 57.0959 40.0942 57.5949 40.96C58.0938 41.8259 57.7977 42.933 56.9335 43.4328L43.6805 51.0976C42.8163 51.5974 41.7112 51.3007 41.212 50.435Z" fill="#1A1B1E"/>
<path d="M41.8607 65.278C41.3615 64.4122 41.6576 63.3051 42.5221 62.8053L47.3706 60.0012C48.2349 59.5012 49.3401 59.7979 49.839 60.6638C50.338 61.5295 50.0418 62.6367 49.1776 63.1364L44.3291 65.9405C43.4648 66.4405 42.3596 66.1439 41.8607 65.278Z" fill="#1A1B1E"/>
<path d="M58.34 55.4943C57.8411 54.6286 58.1372 53.5214 59.0014 53.0217L66.3939 48.7464C67.2581 48.2463 68.3634 48.543 68.8623 49.4089C69.3612 50.2746 69.0651 51.3818 68.2009 51.8816L60.8086 56.1569C59.9442 56.6569 58.8392 56.36 58.34 55.4943Z" fill="#1A1B1E"/>
<path d="M66.797 42.2628C67.2962 41.397 68.4013 41.1004 69.2657 41.6002L73.8429 44.2474C74.7071 44.7473 75.0032 45.8544 74.5043 46.7202C74.0052 47.5859 72.9001 47.8828 72.0357 47.3827L67.4586 44.7355C66.5942 44.2357 66.2981 43.1286 66.797 42.2628Z" fill="#1A1B1E"/>
<path d="M66.1467 49.3584C66.6456 48.4928 67.7508 48.1961 68.6151 48.6959L73.8535 51.7257C74.7177 52.2254 75.0141 53.3326 74.5149 54.1983C74.016 55.064 72.9107 55.3607 72.0465 54.8609L66.8081 51.8313C65.9438 51.3313 65.6477 50.2243 66.1467 49.3584Z" fill="#1A1B1E"/>
<path d="M46.7745 82.6651C47.2737 81.7994 48.3788 81.5027 49.2432 82.0026L54.8475 85.2439C55.7117 85.7437 56.0079 86.8509 55.5089 87.7166C55.0098 88.5823 53.9047 88.879 53.0403 88.3791L47.4362 85.1381C46.5718 84.638 46.2756 83.531 46.7745 82.6651Z" fill="#1A1B1E"/>
<path d="M41.212 58.6762C40.7132 57.8105 41.0093 56.7033 41.8734 56.2035L67.173 41.5714C68.0375 41.0716 69.1425 41.3682 69.6417 42.234C70.1406 43.0998 69.8444 44.2069 68.9803 44.7067L43.6805 59.3387C42.8163 59.8386 41.7112 59.5419 41.212 58.6762Z" fill="#1A1B1E"/>
<path d="M42.7275 47.7065C43.7371 47.7065 44.5555 48.5263 44.5555 49.5375V57.6542C44.5555 58.6653 43.7371 59.4851 42.7275 59.4851C41.7179 59.4851 40.8994 58.6653 40.8994 57.6542V49.5375C40.8994 48.5263 41.7179 47.7065 42.7275 47.7065Z" fill="#1A1B1E"/>
<path d="M54.9801 55.5264C55.9898 55.5264 56.8082 56.3464 56.8082 57.3575V80.9152C56.8082 81.9264 55.9898 82.7462 54.9801 82.7462C53.9707 82.7462 53.1523 81.9264 53.1523 80.9152V57.3575C53.1523 56.3464 53.9707 55.5264 54.9801 55.5264Z" fill="#1A1B1E"/>
<path d="M48.36 59.8828C49.3697 59.8828 50.1881 60.7026 50.1881 61.714V83.3907C50.1881 84.4021 49.3697 85.222 48.36 85.222C47.3506 85.222 46.5322 84.4021 46.5322 83.3907V61.714C46.5322 60.7026 47.3506 59.8828 48.36 59.8828Z" fill="#1A1B1E"/>
<path d="M61.4515 59.5854C62.4339 59.5854 63.2301 60.383 63.2301 61.367V84.1327C63.2301 85.1166 62.4339 85.9144 61.4515 85.9144C60.4692 85.9144 59.6729 85.1166 59.6729 84.1327V61.367C59.6729 60.383 60.4692 59.5854 61.4515 59.5854Z" fill="#1A1B1E"/>
<path d="M72.9647 44.2432C73.9742 44.2432 74.7925 45.0629 74.7925 46.0743V53.2999C74.7925 54.3113 73.9742 55.1311 72.9647 55.1311C71.9551 55.1311 71.1367 54.3113 71.1367 53.2999V46.0743C71.1367 45.0629 71.9551 44.2432 72.9647 44.2432Z" fill="#1A1B1E"/>
<path d="M60.0753 62.1942C59.5765 61.3283 59.8725 60.2213 60.7367 59.7214L65.9057 56.7321C66.77 56.2322 67.8751 56.5289 68.3743 57.3946C68.8732 58.2605 68.5771 59.3675 67.7129 59.8673L62.544 62.8568C61.6796 63.3566 60.5745 63.06 60.0753 62.1942Z" fill="#1A1B1E"/>
</g>
<defs>
<filter id="filter0_d_994_2007" x="0.899414" y="0.0546875" width="113.894" height="128.567" filterUnits="userSpaceOnUse" color-interpolation-filters="sRGB">
<feFlood flood-opacity="0" result="BackgroundImageFix"/>
<feColorMatrix in="SourceAlpha" type="matrix" values="0 0 0 0 0 0 0 0 0 0 0 0 0 0 0 0 0 0 127 0" result="hardAlpha"/>
<feOffset/>
<feGaussianBlur stdDeviation="20"/>
<feComposite in2="hardAlpha" operator="out"/>
<feColorMatrix type="matrix" values="0 0 0 0 1 0 0 0 0 1 0 0 0 0 1 0 0 0 0.25 0"/>
<feBlend mode="normal" in2="BackgroundImageFix" result="effect1_dropShadow_994_2007"/>
<feBlend mode="normal" in="SourceGraphic" in2="effect1_dropShadow_994_2007" result="shape"/>
</filter>
</defs>
</svg>
