<svg width="21" height="21" viewBox="0 0 21 21" fill="none" xmlns="http://www.w3.org/2000/svg">
<path d="M12.3562 12.3562C12.8484 11.8639 13.125 11.1962 13.125 10.5C13.125 9.80381 12.8484 9.13613 12.3562 8.64384C11.8639 8.15156 11.1962 7.875 10.5 7.875C9.80381 7.875 9.13613 8.15156 8.64384 8.64384C8.15156 9.13613 7.875 9.80381 7.875 10.5C7.875 11.1962 8.15156 11.8639 8.64384 12.3562C9.13613 12.8484 9.80381 13.125 10.5 13.125C11.1962 13.125 11.8639 12.8484 12.3562 12.3562Z" stroke="#4E4F51" stroke-width="2" stroke-linecap="round" stroke-linejoin="round"/>
<path d="M2.15063 10.5C3.26538 6.95012 6.58251 4.375 10.4999 4.375C14.4181 4.375 17.7344 6.95012 18.8491 10.5C17.7344 14.0499 14.4181 16.625 10.4999 16.625C6.58251 16.625 3.26538 14.0499 2.15063 10.5Z" stroke="#4E4F51" stroke-width="2" stroke-linecap="round" stroke-linejoin="round"/>
</svg>
