<svg width="21" height="21" viewBox="0 0 21 21" fill="none" xmlns="http://www.w3.org/2000/svg">
<path d="M12.1407 16.4719C11.5998 16.5742 11.0505 16.6254 10.5 16.625C6.58178 16.625 3.26553 14.0499 2.1499 10.5C2.45026 9.54459 2.9129 8.64803 3.51753 7.84962M8.64328 8.64412C9.1356 8.1518 9.80334 7.87522 10.4996 7.87522C11.1958 7.87522 11.8636 8.1518 12.3559 8.64412C12.8482 9.13645 13.1248 9.80418 13.1248 10.5004C13.1248 11.1967 12.8482 11.8644 12.3559 12.3567M8.64328 8.64412L12.3559 12.3567M8.64328 8.64412L12.355 12.355M12.3559 12.3567L15.2355 15.2355M8.64503 8.645L5.76628 5.76625M5.76628 5.76625L2.62503 2.625M5.76628 5.76625C7.17709 4.85587 8.82099 4.37273 10.5 4.375C14.4183 4.375 17.7345 6.95012 18.8502 10.5C18.2342 12.4516 16.9552 14.1265 15.2347 15.2346M5.76628 5.76625L15.2347 15.2346M15.2347 15.2346L18.375 18.375" stroke="#4E4F51" stroke-width="2" stroke-linecap="round" stroke-linejoin="round"/>
</svg>
