<svg width="170" height="108" viewBox="0 0 170 108" fill="none" xmlns="http://www.w3.org/2000/svg">
<path d="M86.3699 49.9896V52.4287H83.0641V62.488H80.0248V52.4287H76.719V49.9896H86.3699ZM94.2579 62.488L91.663 57.7699H90.9343V62.488H87.8951V49.9896H92.996C93.9797 49.9896 94.815 50.1617 95.5021 50.5059C96.2013 50.8501 96.7223 51.3249 97.0661 51.9302C97.4099 52.5237 97.5815 53.1883 97.5815 53.9243C97.5815 54.7551 97.3444 55.497 96.8706 56.1498C96.4085 56.8026 95.7214 57.2655 94.8089 57.5385L97.6882 62.488H94.2579ZM90.9343 55.6157H92.8183C93.3754 55.6157 93.7897 55.4792 94.0624 55.2062C94.3468 54.9331 94.489 54.5474 94.489 54.0489C94.489 53.5741 94.3468 53.2003 94.0624 52.9272C93.7897 52.6542 93.3754 52.5177 92.8183 52.5177H90.9343V55.6157ZM107.256 60.2803H102.6L101.853 62.488H98.6718L103.186 49.9896H106.705L111.22 62.488H108.003L107.256 60.2803ZM106.474 57.9302L104.928 53.3545L103.4 57.9302H106.474ZM117.268 49.9896C118.583 49.9896 119.733 50.2507 120.716 50.7729C121.7 51.2952 122.458 52.0311 122.991 52.9806C123.536 53.9183 123.809 55.0044 123.809 56.2388C123.809 57.4613 123.536 58.5474 122.991 59.4969C122.458 60.4465 121.694 61.1824 120.699 61.7047C119.715 62.2269 118.572 62.488 117.268 62.488H112.594V49.9896H117.268ZM117.073 59.853C118.222 59.853 119.117 59.5385 119.757 58.9094C120.396 58.2803 120.716 57.3901 120.716 56.2388C120.716 55.0875 120.396 54.1913 119.757 53.5504C119.117 52.9094 118.222 52.589 117.073 52.589H115.633V59.853H117.073ZM128.547 52.4287V54.9569H132.617V57.307H128.547V60.0489H133.15V62.488H125.507V49.9896H133.15V52.4287H128.547ZM142.356 62.488L138.162 56.9688V62.488H135.123V49.9896H138.162V55.4732L142.321 49.9896H145.893L141.059 56.1142L146.071 62.488H142.356ZM150.502 49.9896V57.4673C150.502 58.2151 150.685 58.7907 151.053 59.1943C151.42 59.5978 151.959 59.7996 152.67 59.7996C153.381 59.7996 153.926 59.5978 154.305 59.1943C154.684 58.7907 154.874 58.2151 154.874 57.4673V49.9896H157.913V57.4495C157.913 58.5652 157.676 59.5088 157.202 60.2803C156.728 61.0519 156.089 61.6334 155.283 62.0251C154.489 62.4168 153.6 62.6127 152.617 62.6127C151.633 62.6127 150.75 62.4228 149.968 62.0429C149.198 61.6512 148.588 61.0697 148.138 60.2981C147.687 59.5148 147.462 58.5652 147.462 57.4495V49.9896H150.502ZM167.601 56.0786C168.324 56.2328 168.904 56.5949 169.342 57.1646C169.781 57.7225 170 58.3634 170 59.0875C170 60.1319 169.633 60.9628 168.898 61.58C168.175 62.1854 167.162 62.488 165.859 62.488H160.047V49.9896H165.663C166.931 49.9896 167.921 50.2804 168.631 50.862C169.355 51.4435 169.716 52.2329 169.716 53.2299C169.716 53.9658 169.52 54.5771 169.129 55.0637C168.75 55.5504 168.24 55.8887 167.601 56.0786ZM163.086 55.0459H165.077C165.574 55.0459 165.954 54.9391 166.214 54.7254C166.487 54.4999 166.623 54.1735 166.623 53.7462C166.623 53.3189 166.487 52.9925 166.214 52.767C165.954 52.5415 165.574 52.4287 165.077 52.4287H163.086V55.0459ZM165.326 60.0311C165.835 60.0311 166.227 59.9183 166.499 59.6928C166.783 59.4554 166.925 59.1171 166.925 58.678C166.925 58.2388 166.777 57.8946 166.481 57.6453C166.197 57.3961 165.8 57.2714 165.29 57.2714H163.086V60.0311H165.326Z" fill="white"/>
<path d="M47.3879 33.701C49.0041 32.7663 50.9953 32.7663 52.6115 33.701L66.3876 41.6685C68.0038 42.6032 68.9993 44.3306 68.9993 46.2001V62.1348C68.9993 64.0043 68.0038 65.7317 66.3876 66.6664L52.6115 74.6338C50.9953 75.5685 49.0041 75.5685 47.3879 74.6338L33.6118 66.6664C31.9956 65.7317 31 64.0043 31 62.1348V46.2001C31 44.3306 31.9956 42.6032 33.6118 41.6685L47.3879 33.701Z" fill="white"/>
<g filter="url(#filter0_d_531_3428)">
<path d="M41.0572 45.9432C40.7816 45.4649 40.9452 44.8535 41.4225 44.5775L48.7423 40.3441C49.2196 40.068 49.8301 40.2318 50.1057 40.71C50.3812 41.1882 50.2177 41.7997 49.7404 42.0757L42.4206 46.3091C41.9432 46.5852 41.3329 46.4213 41.0572 45.9432Z" fill="black"/>
<path d="M41.4164 54.1414C41.1407 53.6633 41.3043 53.0518 41.7817 52.7757L44.4597 51.227C44.937 50.9508 45.5474 51.1147 45.823 51.5929C46.0986 52.0711 45.935 52.6826 45.4577 52.9586L42.7797 54.5074C42.3024 54.7835 41.692 54.6197 41.4164 54.1414Z" fill="black"/>
<path d="M50.5186 48.7367C50.243 48.2586 50.4066 47.6471 50.8839 47.3711L54.9669 45.0097C55.4442 44.7335 56.0547 44.8974 56.3302 45.3757C56.6058 45.8538 56.4423 46.4653 55.9649 46.7414L51.8821 49.1027C51.4046 49.3789 50.7943 49.2149 50.5186 48.7367Z" fill="black"/>
<path d="M55.1898 41.4298C55.4655 40.9517 56.0758 40.7878 56.5532 41.0639L59.0813 42.526C59.5586 42.8021 59.7222 43.4136 59.4466 43.8918C59.1709 44.3699 58.5606 44.5339 58.0831 44.2577L55.5552 42.7956C55.0777 42.5195 54.9142 41.9081 55.1898 41.4298Z" fill="black"/>
<path d="M54.8304 45.349C55.1059 44.8709 55.7164 44.707 56.1937 44.9831L59.087 46.6565C59.5643 46.9325 59.728 47.544 59.4523 48.0222C59.1768 48.5003 58.5663 48.6642 58.089 48.3881L55.1957 46.7148C54.7184 46.4387 54.5548 45.8273 54.8304 45.349Z" fill="black"/>
<path d="M44.1311 63.745C44.4069 63.2669 45.0172 63.103 45.4946 63.3791L48.59 65.1694C49.0673 65.4454 49.2309 66.0569 48.9553 66.535C48.6796 67.0132 48.0693 67.177 47.5918 66.901L44.4966 65.1109C44.0192 64.8347 43.8556 64.2233 44.1311 63.745Z" fill="black"/>
<path d="M41.0572 50.4946C40.7816 50.0164 40.9452 49.4049 41.4225 49.1289L55.3959 41.0473C55.8733 40.7712 56.4836 40.9351 56.7593 41.4132C57.0349 41.8914 56.8713 42.5029 56.394 42.779L42.4206 50.8605C41.9432 51.1366 41.3329 50.9727 41.0572 50.4946Z" fill="black"/>
<path d="M41.8952 44.4365C42.4528 44.4365 42.9048 44.8892 42.9048 45.4477V49.9307C42.9048 50.4892 42.4528 50.942 41.8952 50.942C41.3375 50.942 40.8855 50.4892 40.8855 49.9307V45.4477C40.8855 44.8892 41.3375 44.4365 41.8952 44.4365Z" fill="black"/>
<path d="M48.6624 48.7552C49.22 48.7552 49.672 49.2081 49.672 49.7666V62.7779C49.672 63.3363 49.22 63.7891 48.6624 63.7891C48.1048 63.7891 47.6528 63.3363 47.6528 62.7779V49.7666C47.6528 49.2081 48.1048 48.7552 48.6624 48.7552Z" fill="black"/>
<path d="M45.0059 51.1607C45.5635 51.1607 46.0156 51.6135 46.0156 52.1721V64.1445C46.0156 64.7031 45.5635 65.1559 45.0059 65.1559C44.4483 65.1559 43.9963 64.7031 43.9963 64.1445V52.1721C43.9963 51.6135 44.4483 51.1607 45.0059 51.1607Z" fill="black"/>
<path d="M52.237 50.9967C52.7796 50.9967 53.2194 51.4372 53.2194 51.9807V64.5546C53.2194 65.098 52.7796 65.5386 52.237 65.5386C51.6945 65.5386 51.2546 65.098 51.2546 64.5546V51.9807C51.2546 51.4372 51.6945 50.9967 52.237 50.9967Z" fill="black"/>
<path d="M58.5951 42.5229C59.1526 42.5229 59.6046 42.9757 59.6046 43.5343V47.5251C59.6046 48.0837 59.1526 48.5366 58.5951 48.5366C58.0374 48.5366 57.5854 48.0837 57.5854 47.5251V43.5343C57.5854 42.9757 58.0374 42.5229 58.5951 42.5229Z" fill="black"/>
<path d="M51.4769 52.4378C51.2013 51.9595 51.3648 51.3481 51.8422 51.072L54.6971 49.4209C55.1744 49.1448 55.7848 49.3087 56.0605 49.7868C56.3361 50.2651 56.1725 50.8765 55.6952 51.1525L52.8404 52.8037C52.3629 53.0798 51.7526 52.9159 51.4769 52.4378Z" fill="black"/>
</g>
<defs>
<filter id="filter0_d_531_3428" x="0.885498" y="0.209961" width="98.719" height="106.825" filterUnits="userSpaceOnUse" color-interpolation-filters="sRGB">
<feFlood flood-opacity="0" result="BackgroundImageFix"/>
<feColorMatrix in="SourceAlpha" type="matrix" values="0 0 0 0 0 0 0 0 0 0 0 0 0 0 0 0 0 0 127 0" result="hardAlpha"/>
<feOffset/>
<feGaussianBlur stdDeviation="20"/>
<feComposite in2="hardAlpha" operator="out"/>
<feColorMatrix type="matrix" values="0 0 0 0 1 0 0 0 0 1 0 0 0 0 1 0 0 0 0.25 0"/>
<feBlend mode="normal" in2="BackgroundImageFix" result="effect1_dropShadow_531_3428"/>
<feBlend mode="normal" in="SourceGraphic" in2="effect1_dropShadow_531_3428" result="shape"/>
</filter>
</defs>
</svg>
