<svg width="240" height="270" viewBox="0 0 240 270" fill="none" xmlns="http://www.w3.org/2000/svg">
<path d="M103.504 4.47102C113.712 -1.49034 126.288 -1.49034 136.496 4.47102L223.505 55.2852C233.712 61.2466 240 72.2638 240 84.1865V185.814C240 197.737 233.712 208.754 223.505 214.715L136.496 265.529C126.288 271.49 113.712 271.49 103.504 265.529L16.4958 214.715C6.288 208.754 0 197.737 0 185.814V84.1865C0 72.2638 6.288 61.2466 16.4958 55.2852L103.504 4.47102Z" fill="#CCFF00"/>
<g filter="url(#filter0_d_985_959)">
<path d="M63.3864 81.5712C61.6499 78.5571 62.6808 74.7039 65.6886 72.9644L111.819 46.2847C114.827 44.5448 118.675 45.5771 120.412 48.5908C122.148 51.6046 121.118 55.4581 118.109 57.1979L71.9787 83.8773C68.9705 85.6172 65.124 84.5845 63.3864 81.5712Z" fill="black"/>
<path d="M65.6488 133.236C63.9113 130.223 64.9421 126.369 67.951 124.629L84.8278 114.869C87.836 113.128 91.6832 114.161 93.4197 117.175C95.1565 120.189 94.1257 124.042 91.1175 125.782L74.2407 135.542C71.2326 137.283 67.3853 136.25 65.6488 133.236Z" fill="black"/>
<path d="M123.012 99.1756C121.275 96.1622 122.306 92.3084 125.314 90.5689L151.045 75.6874C154.054 73.9468 157.901 74.9795 159.637 77.9936C161.374 81.0069 160.343 84.8608 157.335 86.6007L131.604 101.482C128.595 103.222 124.749 102.189 123.012 99.1756Z" fill="black"/>
<path d="M152.449 53.1259C154.187 50.1125 158.033 49.0799 161.042 50.8198L176.974 60.0342C179.982 61.774 181.013 65.6276 179.276 68.6413C177.539 71.6547 173.692 72.688 170.684 70.9474L154.752 61.733C151.743 59.9932 150.712 56.1396 152.449 53.1259Z" fill="black"/>
<path d="M150.187 77.8288C151.924 74.8158 155.771 73.7831 158.779 75.5227L177.013 86.0688C180.021 87.8083 181.053 91.6622 179.315 94.6756C177.579 97.6889 173.732 98.7216 170.723 96.9817L152.49 86.4366C149.481 84.696 148.451 80.8429 150.187 77.8288Z" fill="black"/>
<path d="M82.7575 193.763C84.495 190.749 88.3415 189.717 91.3504 191.456L110.858 202.739C113.866 204.478 114.897 208.332 113.16 211.346C111.423 214.359 107.576 215.392 104.567 213.652L85.0607 202.37C82.0518 200.63 81.021 196.777 82.7575 193.763Z" fill="black"/>
<path d="M63.3864 110.252C61.6499 107.239 62.6808 103.385 65.6886 101.646L153.751 50.7143C156.76 48.9744 160.606 50.0071 162.344 53.0204C164.08 56.0342 163.05 59.8877 160.042 61.6276L71.9787 112.558C68.9705 114.298 65.124 113.266 63.3864 110.252Z" fill="black"/>
<path d="M68.666 72.0762C72.1803 72.0762 75.0288 74.9297 75.0288 78.4494V106.702C75.0288 110.221 72.1803 113.075 68.666 113.075C65.1516 113.075 62.3027 110.221 62.3027 106.702V78.4494C62.3027 74.9297 65.1516 72.0762 68.666 72.0762Z" fill="black"/>
<path d="M111.315 99.293C114.83 99.293 117.679 102.147 117.679 105.667V187.666C117.679 191.186 114.83 194.039 111.315 194.039C107.802 194.039 104.953 191.186 104.953 187.666V105.667C104.953 102.147 107.802 99.293 111.315 99.293Z" fill="black"/>
<path d="M88.2704 114.451C91.7847 114.451 94.6336 117.305 94.6336 120.825V196.277C94.6336 199.798 91.7847 202.651 88.2704 202.651C84.7568 202.651 81.9082 199.798 81.9082 196.277V120.825C81.9082 117.305 84.7568 114.451 88.2704 114.451Z" fill="black"/>
<path d="M133.843 113.42C137.263 113.42 140.034 116.196 140.034 119.621V198.864C140.034 202.288 137.263 205.065 133.843 205.065C130.424 205.065 127.652 202.288 127.652 198.864V119.621C127.652 116.196 130.424 113.42 133.843 113.42Z" fill="black"/>
<path d="M173.912 60.0176C177.425 60.0176 180.274 62.8711 180.274 66.3915V91.542C180.274 95.0625 177.425 97.9163 173.912 97.9163C170.397 97.9163 167.549 95.0625 167.549 91.542V66.3915C167.549 62.8711 170.397 60.0176 173.912 60.0176Z" fill="black"/>
<path d="M129.053 122.502C127.316 119.488 128.347 115.635 131.355 113.895L149.347 103.49C152.355 101.75 156.202 102.782 157.939 105.796C159.676 108.81 158.645 112.663 155.637 114.403L137.645 124.808C134.637 126.548 130.79 125.516 129.053 122.502Z" fill="black"/>
</g>
<defs>
<filter id="filter0_d_985_959" x="22.3027" y="5.43945" width="197.971" height="249.058" filterUnits="userSpaceOnUse" color-interpolation-filters="sRGB">
<feFlood flood-opacity="0" result="BackgroundImageFix"/>
<feColorMatrix in="SourceAlpha" type="matrix" values="0 0 0 0 0 0 0 0 0 0 0 0 0 0 0 0 0 0 127 0" result="hardAlpha"/>
<feOffset/>
<feGaussianBlur stdDeviation="20"/>
<feComposite in2="hardAlpha" operator="out"/>
<feColorMatrix type="matrix" values="0 0 0 0 1 0 0 0 0 1 0 0 0 0 1 0 0 0 0.25 0"/>
<feBlend mode="normal" in2="BackgroundImageFix" result="effect1_dropShadow_985_959"/>
<feBlend mode="normal" in="SourceGraphic" in2="effect1_dropShadow_985_959" result="shape"/>
</filter>
</defs>
</svg>
